<?xml version="1.0" encoding="UTF-8" standalone="no"?>
<svg
   xmlns:dc="http://purl.org/dc/elements/1.1/"
   xmlns:cc="http://creativecommons.org/ns#"
   xmlns:rdf="http://www.w3.org/1999/02/22-rdf-syntax-ns#"
   xmlns:svg="http://www.w3.org/2000/svg"
   xmlns="http://www.w3.org/2000/svg"
   xmlns:sodipodi="http://sodipodi.sourceforge.net/DTD/sodipodi-0.dtd"
   xmlns:inkscape="http://www.inkscape.org/namespaces/inkscape"
   id="Layer_1"
   data-name="Layer 1"
   viewBox="0 0 230 230"
   version="1.1"
   sodipodi:docname="deus-logo.svg"
   inkscape:version="0.92.1 r15371">
  <metadata
     id="metadata17">
    <rdf:RDF>
      <cc:Work
         rdf:about="">
        <dc:format>image/svg+xml</dc:format>
        <dc:type
           rdf:resource="http://purl.org/dc/dcmitype/StillImage" />
        <dc:title>deus-logo-2</dc:title>
      </cc:Work>
    </rdf:RDF>
  </metadata>
  <sodipodi:namedview
     pagecolor="#545b60"
     bordercolor="#666666"
     borderopacity="1"
     objecttolerance="10"
     gridtolerance="10"
     guidetolerance="10"
     inkscape:pageopacity="0"
     inkscape:pageshadow="2"
     inkscape:window-width="1988"
     inkscape:window-height="1128"
     id="namedview15"
     showgrid="false"
     inkscape:zoom="2.0521739"
     inkscape:cx="145.98375"
     inkscape:cy="56.894476"
     inkscape:window-x="998"
     inkscape:window-y="625"
     inkscape:window-maximized="0"
     inkscape:current-layer="Layer_1" />
  <defs
     id="defs4">
    <style
       id="style2">.cls-1{fill:#b8d5ea;}</style>
  </defs>
  <title
     id="title6">deus-logo-2</title>
  <path
     class="cls-1"
     d="M35.79,204.5v-192l.23-.09C41.74,12,176.1,4.24,191,21c10.72,12.06,14.2,44.24,10.36,95.65-2.91,38.9-9.16,74.76-10.05,76.78l-.39.88-1,.09c-57.38.73-138.17-.9-138.17-.9H49.79V21.39l2.09-.08c4.28-.25,105-6,125.56,16.36,21.33,23.18,10,119.87-3.53,137.22-10.65,13.61-97.89,6.5-107.8,5.65l-1.32-.12v-140l1.31-.17c3.95-.5,96.77-11.84,107.29,31.26,8.61,35.3,3.14,47.89-2.15,60.06-.42,1-.84,1.93-1.25,2.91l-2.76-1.16c.41-1,.84-2,1.26-2.94,5.09-11.72,10.36-23.83,2-58.16C161.24,34.39,79.22,41.88,67.79,43.12V177.66c26.94,2.29,94,5.63,101.83-4.62,6.21-8.08,12.23-35.93,14-64.77,2.07-33.43-1.82-59.06-10.4-68.57-18-20-107.22-16.1-119.45-15.47L53.56,191.8c11.25.16,83.39,1.13,136.82.47,3-12.61,23.68-143.35,0-170-11.53-13-112.64-10.08-152.56-7.77v190Z"
     id="path8"
     style="stroke:#b8d5ea;fill:#b8d5ea;fill-opacity:1;stroke-opacity:1" />
  <path
     class="cls-1"
     d="M37.6,221.45a9.31,9.31,0,1,1,9.31-9.31A9.32,9.32,0,0,1,37.6,221.45Zm0-15.62a6.31,6.31,0,1,0,6.31,6.31A6.32,6.32,0,0,0,37.6,205.83Z"
     id="path10"
     style="stroke:#b8d5ea;fill:#b8d5ea;fill-opacity:1;stroke-opacity:1" />
  <path
     class="cls-1"
     d="M148.05,156.39a7.4,7.4,0,0,1-1.22-.1c-3.11-.52-5.37-3.56-6.58-5.19-.21-.28-.47-.63-.56-.72a12.14,12.14,0,0,0-3.47-.87,3.84,3.84,0,0,1-4-.7,4.3,4.3,0,0,1-1.18-2.34,4.74,4.74,0,0,1-2.83.16,3.27,3.27,0,0,1-2.52-3.15,3.54,3.54,0,0,0-.18-.85,7.08,7.08,0,0,0-2.13-2.58c-.44-.21-.79-.08-2,.56a8.43,8.43,0,0,1-6.35,1.17c-5-1.12-5.13-6-5.19-8.14,0-.28,0-.53,0-.71-.92-9.09-3.35-11.57-4.52-12.76l-.23-.24a18.11,18.11,0,0,0-4.49-2.43S89.23,113.64,90,99.28a12.86,12.86,0,0,1,2.71-7.84,22.71,22.71,0,0,0,2-3.32c1.7-3.56,1.47-6.4,1.23-9.42-.3-3.7-.64-7.89,2.87-13.26,1.4-2.15,3.89-2.58,6.78-3.08a27.46,27.46,0,0,0,14.71-6.54c7.29-6.25,13.34.64,17.35,5.2,1.86,2.11,3.93,4.48,5.17,4.48,4.73-.12,8.85,3,11.8,9a37.05,37.05,0,0,1,2.42,6.52,11.6,11.6,0,0,1,5.36,2.34c3.66,3,4.85,8.24,3.19,14.13-.73,2.59-3.35,4.21-7,5-.88,7.86-3.35,15.39-7.66,20.74-5.39,6.71-13,9.09-21.94,6.9-5.29-1.3-11.43-8-12.52-17a22,22,0,0,1,5.64-17.49c-7.07-4-12-9.55-10.73-16.48,1.09-5.8,9.92-9,17-11.59l1.46-.53a7.7,7.7,0,0,1,7.53,1.47c2.48,2,3.93,5,3.61,7.56s-2.58,4.75-6,5.7c-3.26.9-7.5.58-9.65-2.16-1.08-1.38-1.9-3.75-.42-7.52-4.9,2-10,4.51-10.56,7.62-1,5.42,3.37,10.16,9.94,13.71a40.55,40.55,0,0,1,8.81-6.1c9.31-4.9,16-6.6,20.8-6.63A32.33,32.33,0,0,0,152,75.87c-1.68-3.41-4.59-7.46-9-7.37h-.08c-2.57,0-4.81-2.55-7.41-5.5-4.9-5.57-8.45-8.92-13.14-4.9a30.09,30.09,0,0,1-16.14,7.21c-2.69.47-4.12.76-4.78,1.77-2.94,4.51-2.68,7.84-2.39,11.38.26,3.28.54,6.67-1.51,11a25.54,25.54,0,0,1-2.22,3.73A10,10,0,0,0,93,99.45c-.68,12,8.17,15.1,8.55,15.23.78.31,4.28,1.76,5.64,3.18l.21.21c1.41,1.44,4.33,4.43,5.36,14.56,0,.24,0,.56,0,.93.07,2.47.34,4.73,2.85,5.3A5.57,5.57,0,0,0,120,138c1.26-.67,2.82-1.51,4.69-.62a9.5,9.5,0,0,1,3.62,4.16,6.18,6.18,0,0,1,.37,1.58,3.46,3.46,0,0,0,.1.57l.24.08a3.4,3.4,0,0,0,2.41-.88,1.5,1.5,0,0,1,2.47,1.27,4.53,4.53,0,0,0,.35,2.47c.3.27.51.26,1.09.06l.13,0c1.14-.37,5.24.56,6.33,1.6a9.19,9.19,0,0,1,.89,1.1c1,1.29,2.75,3.7,4.67,4,4.49.75,13-6.17,19.88-20.49a1.5,1.5,0,0,1,2.7,1.3C163.38,147.71,154.77,156.39,148.05,156.39Zm-23.2-58.75c-5.46,5.94-5.88,12-5.43,15.69.9,7.34,6,13.38,10.26,14.42,7.86,1.93,14.21,0,18.89-5.86,3.77-4.69,6-11.34,6.88-18.37a58.08,58.08,0,0,1-18.15-1.59A62.59,62.59,0,0,1,124.86,97.64Zm2.31-2.23A60.65,60.65,0,0,0,138,99a52.92,52.92,0,0,0,17.77,1.44,57,57,0,0,0-1.12-16.19c-4.16-.18-10.52,1.18-20.19,6.27A38.55,38.55,0,0,0,127.16,95.41Zm30.68-10.62a59.81,59.81,0,0,1,1,15.06c2.19-.62,3.56-1.55,3.88-2.69,1.32-4.7.51-8.8-2.19-11A8,8,0,0,0,157.84,84.79Zm-29-13.62a1.5,1.5,0,0,1-.19.6c-1.64,2.92-2,5.24-1,6.56s3.81,1.85,6.48,1.11c2.18-.6,3.69-1.85,3.86-3.18.19-1.5-.86-3.54-2.5-4.84a4.82,4.82,0,0,0-4.63-1l-1.47.54Z"
     id="path12"
     style="stroke:#b8d5ea;fill:#b8d5ea;fill-opacity:1;stroke-opacity:1" />
</svg>
