<?xml version="1.0" encoding="UTF-8" standalone="no"?>
<!-- Generator: Adobe Illustrator 19.0.0, SVG Export Plug-In . SVG Version: 6.00 Build 0)  -->

<svg
   xmlns:dc="http://purl.org/dc/elements/1.1/"
   xmlns:cc="http://creativecommons.org/ns#"
   xmlns:rdf="http://www.w3.org/1999/02/22-rdf-syntax-ns#"
   xmlns:svg="http://www.w3.org/2000/svg"
   xmlns="http://www.w3.org/2000/svg"
   xmlns:sodipodi="http://sodipodi.sourceforge.net/DTD/sodipodi-0.dtd"
   xmlns:inkscape="http://www.inkscape.org/namespaces/inkscape"
   version="1.1"
   id="Layer_1"
   x="0px"
   y="0px"
   viewBox="0 0 484 484"
   style="enable-background:new 0 0 484 484;"
   xml:space="preserve"
   sodipodi:docname="hit-points-09.svg"
   inkscape:version="0.92.1 r15371"><metadata
     id="metadata61"><rdf:RDF><cc:Work
         rdf:about=""><dc:format>image/svg+xml</dc:format><dc:type
           rdf:resource="http://purl.org/dc/dcmitype/StillImage" /><dc:title></dc:title></cc:Work></rdf:RDF></metadata><defs
     id="defs59" /><sodipodi:namedview
     pagecolor="#4a5760"
     bordercolor="#666666"
     borderopacity="1"
     objecttolerance="10"
     gridtolerance="10"
     guidetolerance="10"
     inkscape:pageopacity="0"
     inkscape:pageshadow="2"
     inkscape:window-width="1912"
     inkscape:window-height="2051"
     id="namedview57"
     showgrid="false"
     inkscape:zoom="1.4142136"
     inkscape:cx="384.26712"
     inkscape:cy="175.57745"
     inkscape:window-x="1920"
     inkscape:window-y="0"
     inkscape:window-maximized="0"
     inkscape:current-layer="Layer_1" /><path
     style="opacity:1;fill:#4990e2;fill-opacity:1;fill-rule:evenodd;stroke:none;stroke-width:5;stroke-linecap:butt;stroke-linejoin:miter;stroke-miterlimit:4;stroke-dasharray:none;stroke-dashoffset:2.25;stroke-opacity:1;paint-order:normal"
     d="M 155.01562 62.193359 C 124.58763 62.193359 95.984656 74.042594 74.472656 95.558594 C 30.056656 139.96659 30.056656 212.23058 74.472656 256.64258 L 236.11914 418.28906 C 238.46314 420.63306 241.53152 421.80664 244.60352 421.80664 C 247.67552 421.80664 250.7437 420.63492 253.0957 418.29492 L 336.29102 335.09766 L 336.29102 62.21875 C 335.59331 62.206242 334.89501 62.193359 334.19531 62.193359 C 303.76731 62.193359 275.16434 74.042594 253.65234 95.558594 L 244.60742 104.60156 L 235.56445 95.558594 C 214.04845 74.042594 185.43963 62.193359 155.01562 62.193359 z M 428.06055 111.52734 L 428.06055 240.67578 C 441.08731 221.82583 448.10352 199.5027 448.10352 176.10156 C 448.10352 152.69701 441.08767 130.376 428.06055 111.52734 z "
     id="path4551" /><g
     id="g6"
     style="stroke:none;stroke-opacity:1;fill:#ffffff;fill-opacity:1"><g
       id="g4"
       style="stroke:none;stroke-opacity:1;fill:#ffffff;fill-opacity:1"><path
         d="M 414.74,95.558 C 393.228,74.042 364.62,62.194 334.196,62.194 c -30.428,0 -59.032,11.848 -80.544,33.364 l -9.044,9.044 -9.044,-9.044 C 214.048,74.042 185.44,62.194 155.016,62.194 c -30.428,0 -59.032,11.848 -80.544,33.364 -44.416,44.408 -44.416,116.672 0,161.084 L 236.12,418.29 c 2.344,2.344 5.412,3.516 8.484,3.516 3.072,0 6.14,-1.172 8.492,-3.512 L 414.74,256.646 c 21.516,-21.512 33.364,-50.12 33.364,-80.544 0,-30.428 -11.848,-59.032 -33.364,-80.544 z M 401.768,243.674 244.608,396.838 87.444,243.674 c -35.504909,-34.60127 -35.056,-100.092 0,-135.148 16.98,-16.98 43.556,-26.332 67.572,-26.332 24.012,0 46.592,9.352 63.576,26.332 l 17.528,17.528 c 4.688,4.688 12.28,4.688 16.968,0 l 17.528,-17.528 c 16.984,-16.98 39.56,-26.332 63.576,-26.332 24.016,0 50.596,9.352 67.576,26.332 35.056,35.056 35.056,100.092 0,135.148 z"
         id="path2"
         style="fill:#ffffff;fill-opacity:1;stroke:none;stroke-opacity:1"
         inkscape:connector-curvature="0"
         sodipodi:nodetypes="csccssccssccscccssscsscssc" /></g></g><g
     id="g26" /><g
     id="g28" /><g
     id="g30" /><g
     id="g32" /><g
     id="g34" /><g
     id="g36" /><g
     id="g38" /><g
     id="g40" /><g
     id="g42" /><g
     id="g44" /><g
     id="g46" /><g
     id="g48" /><g
     id="g50" /><g
     id="g52" /><g
     id="g54" /><g
     style="stroke:none;stroke-opacity:1;fill:#ffffff;fill-opacity:1"
     id="g4546"><g
       style="stroke:none;stroke-opacity:1;fill:#ffffff;fill-opacity:1"
       id="g4544" /></g></svg>