<?xml version="1.0" encoding="UTF-8" standalone="no"?>
<!-- Generator: Adobe Illustrator 19.0.0, SVG Export Plug-In . SVG Version: 6.00 Build 0)  -->

<svg
   xmlns:dc="http://purl.org/dc/elements/1.1/"
   xmlns:cc="http://creativecommons.org/ns#"
   xmlns:rdf="http://www.w3.org/1999/02/22-rdf-syntax-ns#"
   xmlns:svg="http://www.w3.org/2000/svg"
   xmlns="http://www.w3.org/2000/svg"
   xmlns:sodipodi="http://sodipodi.sourceforge.net/DTD/sodipodi-0.dtd"
   xmlns:inkscape="http://www.inkscape.org/namespaces/inkscape"
   version="1.1"
   id="Layer_1"
   x="0px"
   y="0px"
   viewBox="0 0 295.237 295.237"
   xml:space="preserve"
   sodipodi:docname="virtual-reality-off.svg"
   inkscape:version="0.92.1 r15371"
   style="enable-background:new 0 0 295.237 295.237;"><metadata
     id="metadata49"><rdf:RDF><cc:Work
         rdf:about=""><dc:format>image/svg+xml</dc:format><dc:type
           rdf:resource="http://purl.org/dc/dcmitype/StillImage" /><dc:title /></cc:Work></rdf:RDF></metadata><defs
     id="defs47" /><sodipodi:namedview
     pagecolor="#4a5760"
     bordercolor="#666666"
     borderopacity="1"
     objecttolerance="10"
     gridtolerance="10"
     guidetolerance="10"
     inkscape:pageopacity="0"
     inkscape:pageshadow="2"
     inkscape:window-width="1912"
     inkscape:window-height="2051"
     id="namedview45"
     showgrid="false"
     inkscape:zoom="3.1974312"
     inkscape:cx="197.42597"
     inkscape:cy="155.06001"
     inkscape:window-x="1920"
     inkscape:window-y="0"
     inkscape:window-maximized="0"
     inkscape:current-layer="g12" /><g
     id="g12"><path
       style="fill:#fffffe;fill-opacity:1;stroke:none;stroke-width:1"
       d="M 178.11914 8 C 149.31355 8 122.50265 19.826127 102.36328 41.361328 L 45.203125 41.361328 L 45.203125 46.921875 C 45.203125 69.058455 56.543806 88.434636 73.429688 99.171875 C 69.533117 101.10096 66.350378 104.34879 64.150391 108.0918 C 62.221889 111.37292 61.150179 115.3614 61.152344 119.21289 C 61.158944 130.89911 61.119354 141.87017 61.152344 152.57617 C 61.164244 156.43452 62.786442 160.1433 64.222656 163.69727 C 66.443895 169.19382 69.091817 174.69196 72.707031 179.24609 C 76.816852 212.59284 95.795989 242.21719 123.83008 258.70898 L 124.95312 259.39453 L 124.95312 295.23633 L 135.58594 295.23633 L 135.58594 265.65039 L 145.66211 271.57812 C 155.55092 277.39457 166.77443 280.46875 178.11914 280.46875 C 189.46498 280.46875 200.68932 277.39457 210.57812 271.57812 L 220.65234 265.65039 L 220.65234 295.23633 L 231.28516 295.23633 L 231.28516 259.39453 L 232.4082 258.73242 C 260.28821 242.3282 279.2431 212.90683 283.47461 179.75977 C 290.75306 170.77995 295.08398 159.04041 295.08398 146.44531 L 295.08398 122.73047 C 295.08398 111.63124 290.10922 102.81812 282.47461 99.013672 C 273.20658 46.095838 229.88212 8 178.11914 8 z M 178.11914 19.121094 C 222.58248 19.121094 261.47338 52.072095 271.29297 96.878906 C 258.3204 95.938886 246.86189 87.508626 241.68359 74.875 L 231.28516 49.478516 L 220.88477 74.871094 C 215.38157 88.294104 202.81139 96.96875 188.84961 96.96875 L 103.68555 96.96875 C 79.095838 96.969917 58.787559 77.473709 56.134766 52.484375 L 106.93555 52.484375 L 108.51367 50.726562 C 126.78737 30.34741 151.50969 19.121094 178.11914 19.121094 z M 231.28516 77.730469 L 231.91211 79.257812 C 234.79824 86.292193 239.22116 92.26515 244.60156 96.96875 L 217.9668 96.96875 C 223.35277 92.263982 227.76898 86.292957 230.65625 79.253906 L 231.28516 77.730469 z M 82.513672 108.0918 L 103.68555 108.0918 L 188.84766 108.0918 L 273.72656 108.0918 C 280.23909 108.0918 284.45117 113.83357 284.45117 122.73047 L 284.45117 146.44922 C 284.45117 164.21033 273.56732 179.80643 257.98438 184.36523 C 245.22395 188.09028 232.35998 185.12145 222.67773 176.20703 L 221.17773 174.81836 L 135.05859 174.81836 L 133.55469 176.20703 C 124.93086 184.15341 113.40921 187.4516 101.99414 185.26562 C 84.49196 181.9236 71.785156 165.19678 71.785156 145.49023 L 71.785156 119.3125 C 71.785156 113.12355 76.596242 108.0918 82.513672 108.0918 z M 139.01367 185.94141 L 217.22656 185.94141 C 225.86041 193.26422 236.27014 197.07615 247.14258 197.07031 C 251.66662 197.07031 256.27226 196.40969 260.85547 195.07031 C 264.25855 194.0754 267.46815 192.64809 270.48828 190.90234 C 264.07401 215.34518 248.56451 236.46811 227.19141 249.04102 L 205.36523 261.88672 C 188.76182 271.65125 167.47367 271.65125 150.86914 261.88672 L 129.04492 249.04102 C 107.59258 236.4179 92.066875 215.22025 85.697266 190.6875 C 90.094026 193.30087 94.917113 195.22071 100.08984 196.21094 C 114.07283 198.88036 128.12561 195.14426 139.01367 185.94141 z "
       id="path2" /><rect
       x="239.23547"
       y="141.01562"
       width="15.95026"
       height="11.121422"
       id="rect6"
       style="fill:#ffffff;stroke-width:1" /><path
       style="opacity:0.5;fill:#ffffff;fill-opacity:0.91085271;stroke:none;stroke-width:1;stroke-opacity:1"
       d="M 42.4375 110.42773 C 33.643978 110.42773 26.488281 115.57643 26.488281 124.77344 L 26.488281 130.83203 C 11.426754 133.49561 -0.095703125 147.19652 -0.095703125 163.69531 L -0.095703125 208.17969 C -0.095703125 226.57955 14.210109 241.54297 31.802734 241.54297 L 50.517578 241.54297 C 62.246367 241.54297 71.785156 251.52013 71.785156 263.78711 L 71.785156 295.23633 L 82.419922 295.23633 L 82.419922 263.78906 C 82.419922 245.38921 68.112156 230.42383 50.519531 230.42383 L 31.804688 230.42383 C 20.075899 230.42383 10.539062 220.45055 10.539062 208.18359 L 10.539062 163.69727 C 10.539062 153.36523 17.337482 144.73101 26.488281 142.24609 L 26.488281 147.11719 C 26.488281 156.3142 33.645931 161.36133 42.439453 161.36133 L 47.080078 161.36133 L 47.080078 110.42773 L 42.4375 110.42773 z "
       id="path856" /><rect
       x="98.281013"
       y="141.15265"
       width="125.10793"
       height="10.847359"
       id="rect4-3"
       style="fill:#ffffff;stroke-width:1" /></g><g
     id="g14" /><g
     id="g16" /><g
     id="g18" /><g
     id="g20" /><g
     id="g22" /><g
     id="g24" /><g
     id="g26" /><g
     id="g28" /><g
     id="g30" /><g
     id="g32" /><g
     id="g34" /><g
     id="g36" /><g
     id="g38" /><g
     id="g40" /><g
     id="g42" /></svg>