<?xml version="1.0" encoding="iso-8859-1"?>
<!-- Generator: Adobe Illustrator 19.1.0, SVG Export Plug-In . SVG Version: 6.00 Build 0)  -->
<svg version="1.1" id="Capa_1" xmlns="http://www.w3.org/2000/svg" xmlns:xlink="http://www.w3.org/1999/xlink" x="0px" y="0px"
	 viewBox="0 0 47.834 47.834" style="enable-background:new 0 0 47.834 47.834;" xml:space="preserve">
<g>
	<g>
		<path d="M46.878,41.834H0.956l0.005-1.005c0.021-4.065,2.87-7.548,6.759-8.437V20.697C7.72,11.766,14.985,4.5,23.916,4.5
			c8.932,0,16.198,7.266,16.198,16.197v11.695c3.889,0.89,6.737,4.372,6.759,8.437L46.878,41.834z M3.042,39.834h41.75
			c-0.458-2.908-2.804-5.241-5.8-5.61l-0.878-0.107V20.697c0-7.828-6.369-14.197-14.198-14.197C16.088,6.5,9.72,12.869,9.72,20.697
			v13.419l-0.878,0.107C5.845,34.592,3.5,36.925,3.042,39.834z"/>
	</g>
	<g>
		<path d="M21.125,5.988h-2V4.792C19.125,2.149,21.274,0,23.917,0c2.642,0,4.791,2.149,4.791,4.792v1.176h-2V4.792
			C26.708,3.253,25.456,2,23.917,2c-1.539,0-2.792,1.253-2.792,2.792V5.988z"/>
	</g>
	<g>
		<path d="M23.903,47.834c-3.941,0-7.375-2.799-8.164-6.656l1.959-0.4c0.6,2.93,3.209,5.057,6.205,5.057
			c3.058,0,5.677-2.179,6.228-5.18l1.967,0.361C31.373,44.967,27.927,47.834,23.903,47.834z"/>
	</g>
	<g>
		<rect x="8.72" y="32.231" width="3.682" height="2"/>
	</g>
	<g>
		<rect x="18.167" y="32.231" width="20.947" height="2"/>
	</g>
</g>
<g>
</g>
<g>
</g>
<g>
</g>
<g>
</g>
<g>
</g>
<g>
</g>
<g>
</g>
<g>
</g>
<g>
</g>
<g>
</g>
<g>
</g>
<g>
</g>
<g>
</g>
<g>
</g>
<g>
</g>
</svg>
