<svg id="Layer_1" data-name="Layer 1" xmlns="http://www.w3.org/2000/svg" viewBox="0 0 800 230"><defs><style>.cls-1{fill:#b8d5ea;}.cls-2{fill:#b9d6ea;}</style></defs><title>deus-logo-1</title><path class="cls-1" d="M19.29,204.5v-192l.23-.09C25.24,12,159.6,4.24,174.49,21c10.72,12.06,14.2,44.24,10.36,95.65-2.91,38.9-9.16,74.76-10.05,76.78l-.39.88-1,.09c-57.38.73-138.17-.9-138.17-.9H33.29V21.39l2.09-.08c4.28-.25,105-6,125.56,16.36,21.33,23.18,10,119.87-3.53,137.22-10.65,13.61-97.89,6.5-107.8,5.65l-1.32-.12v-140l1.31-.17c3.95-.5,96.77-11.84,107.29,31.26,8.61,35.3,3.14,47.89-2.15,60.06-.42,1-.84,1.93-1.25,2.91l-2.76-1.16c.41-1,.84-2,1.26-2.94,5.09-11.72,10.36-23.83,2-58.16C144.74,34.39,62.72,41.88,51.29,43.12V177.66c26.94,2.29,94,5.63,101.83-4.62,6.21-8.08,12.23-35.93,14-64.77,2.07-33.43-1.82-59.06-10.4-68.57-18-20-107.22-16.1-119.45-15.47L37.06,191.8c11.25.16,83.39,1.13,136.82.47,3-12.61,23.68-143.35,0-170-11.53-13-112.64-10.08-152.56-7.77v190Z"/><path class="cls-1" d="M21.1,221.45a9.31,9.31,0,1,1,9.31-9.31A9.32,9.32,0,0,1,21.1,221.45Zm0-15.62a6.31,6.31,0,1,0,6.31,6.31A6.32,6.32,0,0,0,21.1,205.83Z"/><path class="cls-1" d="M131.55,156.39a7.4,7.4,0,0,1-1.22-.1c-3.11-.52-5.37-3.56-6.58-5.19-.21-.28-.47-.63-.56-.72a12.14,12.14,0,0,0-3.47-.87,3.84,3.84,0,0,1-4-.7,4.3,4.3,0,0,1-1.18-2.34,4.74,4.74,0,0,1-2.83.16,3.27,3.27,0,0,1-2.52-3.15,3.54,3.54,0,0,0-.18-.85,7.08,7.08,0,0,0-2.13-2.58c-.44-.21-.79-.08-2,.56a8.43,8.43,0,0,1-6.35,1.17c-5-1.12-5.13-6-5.19-8.14,0-.28,0-.53,0-.71-.92-9.09-3.35-11.57-4.52-12.76l-.23-.24a18.11,18.11,0,0,0-4.49-2.43s-11.33-3.85-10.52-18.22a12.86,12.86,0,0,1,2.71-7.84,22.71,22.71,0,0,0,2-3.32c1.7-3.56,1.47-6.4,1.23-9.42-.3-3.7-.64-7.89,2.87-13.26,1.4-2.15,3.89-2.58,6.78-3.08a27.46,27.46,0,0,0,14.71-6.54c7.29-6.25,13.34.64,17.35,5.2,1.86,2.11,3.93,4.48,5.17,4.48,4.73-.12,8.85,3,11.8,9a37.05,37.05,0,0,1,2.42,6.52,11.6,11.6,0,0,1,5.36,2.34c3.66,3,4.85,8.24,3.19,14.13-.73,2.59-3.35,4.21-7,5-.88,7.86-3.35,15.39-7.66,20.74-5.39,6.71-13,9.09-21.94,6.9-5.29-1.3-11.43-8-12.52-17a22,22,0,0,1,5.64-17.49c-7.07-4-12-9.55-10.73-16.48,1.09-5.8,9.92-9,17-11.59l1.46-.53a7.7,7.7,0,0,1,7.53,1.47c2.48,2,3.93,5,3.61,7.56s-2.58,4.75-6,5.7c-3.26.9-7.5.58-9.65-2.16-1.08-1.38-1.9-3.75-.42-7.52-4.9,2-10,4.51-10.56,7.62-1,5.42,3.37,10.16,9.94,13.71a40.55,40.55,0,0,1,8.81-6.1c9.31-4.9,16-6.6,20.8-6.63a32.33,32.33,0,0,0-1.91-4.94c-1.68-3.41-4.59-7.46-9-7.37h-.08c-2.57,0-4.81-2.55-7.41-5.5-4.9-5.57-8.45-8.92-13.14-4.9a30.09,30.09,0,0,1-16.14,7.21c-2.69.47-4.12.76-4.78,1.77-2.94,4.51-2.68,7.84-2.39,11.38.26,3.28.54,6.67-1.51,11a25.54,25.54,0,0,1-2.22,3.73,10,10,0,0,0-2.19,6.31c-.68,12,8.17,15.1,8.55,15.23.78.31,4.28,1.76,5.64,3.18l.21.21c1.41,1.44,4.33,4.43,5.36,14.56,0,.24,0,.56,0,.93.07,2.47.34,4.73,2.85,5.3a5.57,5.57,0,0,0,4.27-.89c1.26-.67,2.82-1.51,4.69-.62a9.5,9.5,0,0,1,3.62,4.16,6.18,6.18,0,0,1,.37,1.58,3.46,3.46,0,0,0,.1.57l.24.08a3.4,3.4,0,0,0,2.41-.88,1.5,1.5,0,0,1,2.47,1.27,4.53,4.53,0,0,0,.35,2.47c.3.27.51.26,1.09.06l.13,0c1.14-.37,5.24.56,6.33,1.6a9.19,9.19,0,0,1,.89,1.1c1,1.29,2.75,3.7,4.67,4,4.49.75,13-6.17,19.88-20.49a1.5,1.5,0,0,1,2.7,1.3C146.88,147.71,138.27,156.39,131.55,156.39Zm-23.2-58.75c-5.46,5.94-5.88,12-5.43,15.69.9,7.34,6,13.38,10.26,14.42,7.86,1.93,14.21,0,18.89-5.86,3.77-4.69,6-11.34,6.88-18.37a58.08,58.08,0,0,1-18.15-1.59A62.59,62.59,0,0,1,108.36,97.64Zm2.31-2.23A60.65,60.65,0,0,0,121.5,99a52.92,52.92,0,0,0,17.77,1.44,57,57,0,0,0-1.12-16.19c-4.16-.18-10.52,1.18-20.19,6.27A38.55,38.55,0,0,0,110.66,95.41Zm30.68-10.62a59.81,59.81,0,0,1,1,15.06c2.19-.62,3.56-1.55,3.88-2.69,1.32-4.7.51-8.8-2.19-11A8,8,0,0,0,141.34,84.79Zm-29-13.62a1.5,1.5,0,0,1-.19.6c-1.65,2.92-2,5.24-1,6.56s3.81,1.85,6.48,1.11c2.18-.6,3.69-1.85,3.86-3.18.19-1.5-.86-3.54-2.5-4.84a4.82,4.82,0,0,0-4.63-1l-1.47.54Z"/><path class="cls-2" d="M267.29,92.68V113q0,12.48-19.46,12.47H229.29v-46h18.46Q267.29,79.5,267.29,92.68Zm-7,20.79V93a8.44,8.44,0,0,0-1.06-4.41,6.26,6.26,0,0,0-3-2.58,16.86,16.86,0,0,0-4-1.15,30.52,30.52,0,0,0-4.72-.32H236.29v37H247.2Q260.29,121.5,260.29,113.47Z"/><path class="cls-2" d="M307.29,110.5h-24v5.18q0,3.62,2.59,5.15t7.69,1.53a49,49,0,0,0,11.72-1.7v4.51A56.85,56.85,0,0,1,293,126.57q-15.66,0-15.66-10.44V102.91q0-6.32,3.68-9t11.75-2.7q7.57,0,11.07,2.59t3.5,9.12Zm-7-5v-5.39q0-3.12-2-4.29t-6.51-1.17a14,14,0,0,0-6.44,1.14q-2.1,1.14-2.1,4.33v5.39Z"/><path class="cls-2" d="M348.29,125.5h-7v-4.14q-1,4.85-11.18,4.85-6.75,0-9.28-2.42t-2.53-7.34V91.5h6v24.84a8.86,8.86,0,0,0,.22,2.13,4.83,4.83,0,0,0,.9,1.74,4.27,4.27,0,0,0,2.3,1.35,15,15,0,0,0,4.05.46q5.38,0,7.46-1a3.65,3.65,0,0,0,2.08-3.62V91.5h7Z"/><path class="cls-2" d="M386.29,113.59v3q0,5.54-3.76,7.67t-10.79,2.13a82.55,82.55,0,0,1-11.45-.85v-4.65A85.85,85.85,0,0,0,372,122.21a18.09,18.09,0,0,0,6.25-.82,3.25,3.25,0,0,0,2.08-3.37v-3.48a3.41,3.41,0,0,0-1.46-3.12,9.16,9.16,0,0,0-4.72-.92h-3.79q-5.44,0-8.24-2.24a7.44,7.44,0,0,1-2.79-6.14V98.93q0-8.09,15.47-8.09,1.72,0,10.53.57v4.37a71.65,71.65,0,0,0-11-1q-5.26,0-7.12,1a3.48,3.48,0,0,0-1.86,3.34V102q0,3.48,6.5,3.48h4Q386.29,105.5,386.29,113.59Z"/><path class="cls-2" d="M447.29,125.5h-32v-46h31v5h-24v15h22v5h-22v16h25Z"/><path class="cls-2" d="M485.59,125.5h-7l-9.2-13.42L460.3,125.5h-7L466,108,454,91.5h7l8.43,12.43,8.5-12.43h7L472.94,108Z"/><path class="cls-2" d="M561.29,125.5h-6v-39h-.35l-14.84,39h-6.18l-15.27-39h-.35v39h-6v-46h10.25l14.71,38.27.21.07L551.4,79.5h9.9Z"/><path class="cls-2" d="M601.29,125.5h-6v-3.22q-.77,3.92-10.21,3.92-7,0-9.68-2.13t-2.69-8.64q0-5.66,2.52-7.8t9.72-2.13h10.35V100q0-2.84-1.73-3.83t-6.54-1a91.1,91.1,0,0,0-11.73.85v-5q6.9-.64,12.48-.64,8.5,0,11,2.09t2.51,8.7Zm-6-6.52V109.5h-10q-4.45,0-5.57,1.15t-1.11,5.24q0,3.66,1.19,5.14t5,1.47h1.29q1.87,0,3.12-.07a20,20,0,0,0,2.84-.4,5,5,0,0,0,2.41-1.08A2.55,2.55,0,0,0,595.29,119Z"/><path class="cls-2" d="M639.29,125.59a53.35,53.35,0,0,1-11,1q-3.11,0-4.84-.11a20.22,20.22,0,0,1-4-.71,7.64,7.64,0,0,1-3.39-1.73,9.22,9.22,0,0,1-2-3.28,14.65,14.65,0,0,1-.85-5.33V102.84a20.07,20.07,0,0,1,.54-5,8,8,0,0,1,1.69-3.38,11.75,11.75,0,0,1,2.38-2.09,8.56,8.56,0,0,1,3.35-1.12q2.12-.32,3.74-.43t4.36-.11a46.66,46.66,0,0,1,9.94,1.08v4.67A44.61,44.61,0,0,0,628.22,95q-5.58,0-7.25,1.34T619.29,102v13.83q0,3.84,1.85,5.11t7.57,1.27a43,43,0,0,0,10.58-1.38Z"/><path class="cls-2" d="M679.29,126.5h-7V101.73a8.84,8.84,0,0,0-.22-2.13,4.84,4.84,0,0,0-.9-1.74,4.29,4.29,0,0,0-2.3-1.35,15,15,0,0,0-4.05-.46q-6,0-7.75,1.28t-1.79,4.4V126.5h-6v-50h7V96.14q1-4.93,11.18-4.93,6.75,0,9.28,2.46t2.53,7.46Z"/><path class="cls-2" d="M698.29,85.5h-6v-7h6Zm0,40h-6v-34h6Z"/><path class="cls-2" d="M740.29,125.5h-6V100.66a8.83,8.83,0,0,0-.22-2.13,4.84,4.84,0,0,0-.9-1.74,4.29,4.29,0,0,0-2.3-1.35,15,15,0,0,0-4.05-.46q-5.67,0-7.6,1.21t-1.94,4.47V125.5h-6v-34h6v4.14q1-4.85,11.18-4.85,6.75,0,9.28,2.42t2.53,7.34Z"/><path class="cls-2" d="M780.29,125.5h-6v-3.22q-.77,3.92-10.21,3.92-7,0-9.68-2.13t-2.69-8.64q0-5.66,2.52-7.8t9.72-2.13h10.35V100q0-2.84-1.73-3.83t-6.54-1a91.11,91.11,0,0,0-11.73.85v-5q6.9-.64,12.48-.64,8.5,0,11,2.09t2.51,8.7Zm-6-6.52V109.5h-10q-4.45,0-5.57,1.15t-1.11,5.24q0,3.66,1.19,5.14t5,1.47h1.29q1.87,0,3.12-.07a20,20,0,0,0,2.84-.4,5,5,0,0,0,2.41-1.08A2.55,2.55,0,0,0,774.29,119Z"/></svg>