<?xml version="1.0" encoding="iso-8859-1"?>
<!-- Generator: Adobe Illustrator 16.0.0, SVG Export Plug-In . SVG Version: 6.00 Build 0)  -->
<!DOCTYPE svg PUBLIC "-//W3C//DTD SVG 1.1//EN" "http://www.w3.org/Graphics/SVG/1.1/DTD/svg11.dtd">
<svg version="1.1" id="Capa_1" xmlns="http://www.w3.org/2000/svg" xmlns:xlink="http://www.w3.org/1999/xlink" x="0px" y="0px"
	 width="37.334px" height="37.334px" viewBox="0 0 37.334 37.334" style="enable-background:new 0 0 37.334 37.334;"
	 xml:space="preserve">
<g>
	<g>
		<path d="M14.911,25.001H4.227c0-2.176,1.428-4.031,3.436-4.767c-0.431-0.438-0.744-1.104-0.901-2.109
			c-0.207,0.042-0.528-0.195-0.623-0.556c-0.097-0.367-0.16-0.96,0.049-1.017c0.062-0.017,0.127-0.005,0.19,0.028V15.56
			c0-1.606-0.378-2.55,2.247-2.819l-0.023-0.006c0,0,2.069-0.199,2.614-0.689c0,0,0.015,0.414,0.235,0.868
			c1.211,0.464,1.363,1.537,1.328,2.647v1.021c0.064-0.033,0.129-0.045,0.191-0.028c0.209,0.057,0.098,0.672,0.002,1.041
			c-0.094,0.357-0.365,0.57-0.57,0.532c-0.153,0.957-0.489,1.644-0.955,2.101C13.47,20.955,14.911,22.813,14.911,25.001z
			 M37.334,6.5v24.333H0V6.5H37.334z M35.334,8.5H2v20.333h33.334V8.5z M32.667,12.5H17.834v2h14.833V12.5z M32.667,17.667H17.834v2
			h14.833V17.667z M32.667,22.835H17.834v2h14.833V22.835z"/>
	</g>
</g>
<g>
</g>
<g>
</g>
<g>
</g>
<g>
</g>
<g>
</g>
<g>
</g>
<g>
</g>
<g>
</g>
<g>
</g>
<g>
</g>
<g>
</g>
<g>
</g>
<g>
</g>
<g>
</g>
<g>
</g>
</svg>
