<?xml version="1.0" encoding="UTF-8" standalone="no"?>
<svg
   xmlns:dc="http://purl.org/dc/elements/1.1/"
   xmlns:cc="http://creativecommons.org/ns#"
   xmlns:rdf="http://www.w3.org/1999/02/22-rdf-syntax-ns#"
   xmlns:svg="http://www.w3.org/2000/svg"
   xmlns="http://www.w3.org/2000/svg"
   xmlns:sodipodi="http://sodipodi.sourceforge.net/DTD/sodipodi-0.dtd"
   xmlns:inkscape="http://www.inkscape.org/namespaces/inkscape"
   version="1.1"
   width="200"
   height="200"
   id="svg448"
   sodipodi:docname="generate-id-qr-code.svg"
   inkscape:version="0.92.1 r15371">
  <metadata
     id="metadata454">
    <rdf:RDF>
      <cc:Work
         rdf:about="">
        <dc:format>image/svg+xml</dc:format>
        <dc:type
           rdf:resource="http://purl.org/dc/dcmitype/StillImage" />
        <dc:title></dc:title>
      </cc:Work>
    </rdf:RDF>
  </metadata>
  <defs
     id="defs452" />
  <sodipodi:namedview
     pagecolor="#4a5760"
     bordercolor="#666666"
     borderopacity="1"
     objecttolerance="10"
     gridtolerance="10"
     guidetolerance="10"
     inkscape:pageopacity="0"
     inkscape:pageshadow="2"
     inkscape:window-width="3840"
     inkscape:window-height="2051"
     id="namedview450"
     showgrid="false"
     inkscape:zoom="4.72"
     inkscape:cx="75.294808"
     inkscape:cy="101.43182"
     inkscape:window-x="0"
     inkscape:window-y="0"
     inkscape:window-maximized="1"
     inkscape:current-layer="svg448" />
  <g
     id="g5173"
     transform="matrix(0.56141699,0,0,0.56141699,78.464589,43.858301)"
     style="fill:#ffffff;fill-opacity:1;stroke:none;stroke-width:1.78120708">
    <path
       id="rect446"
       style="fill:#ffffff;fill-opacity:1;stroke:none;stroke-width:2.13996196"
       d="m 168,176 h 8 v 8 h -8 z m -16,0 h 8 v 8 h -8 z m -8,0 h 8 v 8 h -8 z m -32,0 h 8 v 8 h -8 z m -8,0 h 8 v 8 h -8 z m -24,0 h 8 v 8 h -8 z m -16,0 h 8 v 8 h -8 z m -8,0 h 8 v 8 h -8 z m -8,0 h 8 v 8 h -8 z m -8,0 h 8 v 8 h -8 z m -8,0 h 8 v 8 h -8 z m -8,0 h 8 v 8 h -8 z m -8,0 h 8 v 8 h -8 z m 136,-8 h 8 v 8 h -8 z m -8,0 h 8 v 8 h -8 z m -8,0 h 8 v 8 h -8 z m -8,0 h 8 v 8 h -8 z m -8,0 h 8 v 8 h -8 z m -32,0 h 8 v 8 h -8 z m -8,0 h 8 v 8 h -8 z m -16,0 h 8 v 8 h -8 z m -48,0 h 8 v 8 h -8 z m 160,-8 h 8 v 8 h -8 z m -24,0 h 8 v 8 h -8 z m -8,0 h 8 v 8 h -8 z m -8,0 h 8 v 8 h -8 z m -24,0 h 8 v 8 h -8 z m -24,0 h 8 v 8 h -8 z m -24,0 h 8 v 8 h -8 z m -16,0 h 8 v 8 h -8 z m -8,0 h 8 v 8 h -8 z m -8,0 h 8 v 8 h -8 z m -16,0 h 8 v 8 h -8 z m 160,-8 h 8 v 8 h -8 z m -8,0 h 8 v 8 h -8 z m -32,0 h 8 v 8 h -8 z m -32,0 h 8 v 8 h -8 z m -24,0 h 8 v 8 h -8 z m -16,0 h 8 v 8 h -8 z m -16,0 h 8 v 8 h -8 z m -8,0 h 8 v 8 h -8 z m -8,0 h 8 v 8 h -8 z m -16,0 h 8 v 8 h -8 z m 152,-8 h 8 v 8 h -8 z m -16,0 h 8 v 8 h -8 z m -8,0 h 8 v 8 h -8 z m -8,0 h 8 v 8 h -8 z m -8,0 h 8 v 8 h -8 z m -8,0 h 8 v 8 h -8 z m -16,0 h 8 v 8 h -8 z m -16,0 h 8 v 8 h -8 z m -24,0 h 8 v 8 h -8 z m -16,0 h 8 v 8 h -8 z m -8,0 h 8 v 8 h -8 z m -8,0 h 8 v 8 h -8 z m -16,0 h 8 v 8 h -8 z m 120,-8 h 8 v 8 h -8 z m -16,0 h 8 v 8 h -8 z m -8,0 h 8 v 8 h -8 z m -8,0 h 8 v 8 h -8 z m -8,0 h 8 v 8 h -8 z m -32,0 h 8 v 8 h -8 z m -48,0 h 8 v 8 h -8 z m 152,-8 h 8 v 8 h -8 z m -8,0 h 8 v 8 h -8 z m -16,0 h 8 v 8 h -8 z m -8,0 h 8 v 8 h -8 z m -56,0 h 8 v 8 h -8 z m -16,0 h 8 v 8 h -8 z m -8,0 h 8 v 8 h -8 z m -8,0 h 8 v 8 h -8 z m -8,0 h 8 v 8 h -8 z m -8,0 h 8 v 8 h -8 z m -8,0 h 8 v 8 h -8 z m -8,0 h 8 v 8 h -8 z m 128,-8 h 8 v 8 h -8 z m -8,0 h 8 v 8 h -8 z m -32,0 h 8 v 8 h -8 z m -16,0 h 8 v 8 h -8 z m -8,0 h 8 v 8 h -8 z m 96,-8 h 8 v 8 h -8 z m -8,0 h 8 v 8 h -8 z m -16,0 h 8 v 8 h -8 z m -8,0 h 8 v 8 h -8 z m -16,0 h 8 v 8 h -8 z m -8,0 h 8 v 8 h -8 z m -8,0 h 8 v 8 h -8 z m -16,0 h 8 v 8 h -8 z m -32,0 h 8 v 8 h -8 z m -40,0 h 8 v 8 h -8 z m -8,0 h 8 v 8 h -8 z m 160,-8 h 8 v 8 h -8 z m -8,0 h 8 v 8 h -8 z m -16,0 h 8 v 8 h -8 z m -24,0 h 8 v 8 h -8 z m -24,0 h 8 v 8 h -8 z m -8,0 h 8 v 8 h -8 z m -8,0 h 8 v 8 h -8 z m -16,0 h 8 v 8 h -8 z m -24,0 h 8 v 8 h -8 z m -16,0 h 8 v 8 h -8 z m -16,0 h 8 v 8 h -8 z m 160,-8 h 8 v 8 h -8 z m -16,0 h 8 v 8 h -8 z m -8,0 h 8 v 8 h -8 z m -16,0 h 8 v 8 h -8 z m -16,0 h 8 v 8 h -8 z m -8,0 h 8 v 8 h -8 z m -48,0 h 8 v 8 h -8 z m -8,0 h 8 v 8 h -8 z m -8,0 h 8 v 8 h -8 z m -8,0 h 8 v 8 h -8 z m -8,0 h 8 v 8 h -8 z m 144,-8 h 8 v 8 h -8 z m -8,0 h 8 v 8 h -8 z m -48,0 h 8 v 8 h -8 z m -32,0 h 8 v 8 h -8 z m -16,0 h 8 v 8 h -8 z m -24,0 h 8 v 8 h -8 z m -8,0 h 8 v 8 h -8 z m 128,-8 h 8 v 8 h -8 z m -8,0 h 8 v 8 h -8 z m -16,0 h 8 v 8 h -8 z m -8,0 h 8 v 8 h -8 z m -8,0 h 8 v 8 h -8 z m -32,0 h 8 v 8 h -8 z m -8,0 h 8 v 8 h -8 z m -16,0 h 8 v 8 h -8 z m -8,0 h 8 v 8 h -8 z m -24,0 h 8 v 8 h -8 z m -16,0 h 8 v 8 h -8 z m -8,0 h 8 v 8 h -8 z m 96,-8 h 8 v 8 h -8 z m -8,0 h 8 v 8 h -8 z m -8,0 h 8 v 8 h -8 z m -8,0 h 8 v 8 h -8 z m -8,0 h 8 v 8 h -8 z m 96,-8 h 8 v 8 h -8 z m -8,0 h 8 v 8 h -8 z m -8,0 h 8 v 8 h -8 z m -8,0 h 8 v 8 h -8 z m -8,0 h 8 v 8 h -8 z m -8,0 h 8 v 8 h -8 z m -8,0 h 8 v 8 h -8 z m -16,0 h 8 v 8 h -8 z m -16,0 h 8 v 8 h -8 z m -16,0 h 8 v 8 h -8 z m -16,0 h 8 v 8 h -8 z m -8,0 h 8 v 8 h -8 z m -8,0 h 8 v 8 h -8 z m -8,0 h 8 v 8 h -8 z m -8,0 h 8 v 8 h -8 z m -8,0 h 8 v 8 h -8 z m -8,0 h 8 v 8 h -8 z m 160,-8 h 8 v 8 h -8 z m -48,0 h 8 v 8 h -8 z m -16,0 h 8 v 8 h -8 z m -8,0 h 8 v 8 h -8 z m -24,0 h 8 v 8 h -8 z m -16,0 h 8 v 8 h -8 z m -48,0 h 8 v 8 h -8 z m 160,-8 h 8 v 8 h -8 z m -16,0 h 8 v 8 h -8 z m -8,0 h 8 v 8 h -8 z m -8,0 h 8 v 8 h -8 z m -16,0 h 8 v 8 h -8 z m -16,0 h 8 v 8 h -8 z m -32,0 h 8 v 8 h -8 z m -16,0 h 8 v 8 h -8 z m -16,0 h 8 v 8 h -8 z m -8,0 h 8 v 8 h -8 z m -8,0 h 8 v 8 h -8 z m -16,0 h 8 v 8 h -8 z m 160,-8 h 8 v 8 h -8 z m -16,0 h 8 v 8 h -8 z m -8,0 h 8 v 8 h -8 z m -8,0 h 8 v 8 h -8 z m -16,0 h 8 v 8 h -8 z m -24,0 h 8 v 8 h -8 z m -16,0 h 8 v 8 h -8 z m -24,0 h 8 v 8 h -8 z m -16,0 h 8 v 8 h -8 z m -8,0 h 8 v 8 h -8 z m -8,0 h 8 v 8 h -8 z m -16,0 h 8 v 8 h -8 z m 160,-8 h 8 v 8 h -8 z m -16,0 h 8 v 8 h -8 z m -8,0 h 8 v 8 h -8 z m -8,0 h 8 v 8 h -8 z m -16,0 h 8 v 8 h -8 z m -16,0 h 8 v 8 h -8 z m -24,0 h 8 v 8 h -8 z m -8,0 h 8 v 8 h -8 z m -16,0 h 8 v 8 h -8 z m -16,0 h 8 v 8 h -8 z m -8,0 h 8 v 8 h -8 z m -8,0 h 8 v 8 h -8 z m -16,0 h 8 v 8 h -8 z m 160,-8 h 8 v 8 h -8 z m -48,0 h 8 v 8 h -8 z m -24,0 h 8 v 8 h -8 z m -16,0 h 8 v 8 h -8 z m -8,0 h 8 v 8 h -8 z m -16,0 h 8 v 8 h -8 z m -48,0 h 8 v 8 h -8 z m 160,-8 h 8 v 8 h -8 z m -8,0 h 8 v 8 h -8 z m -8,0 h 8 v 8 h -8 z m -8,0 h 8 v 8 h -8 z m -8,0 h 8 v 8 h -8 z m -8,0 h 8 v 8 h -8 z m -8,0 h 8 v 8 h -8 z m -16,0 h 8 v 8 h -8 z m -8,0 h 8 v 8 h -8 z m -16,0 h 8 v 8 h -8 z m -24,0 h 8 v 8 h -8 z m -8,0 h 8 v 8 h -8 z m -8,0 h 8 v 8 h -8 z m -8,0 h 8 v 8 h -8 z m -8,0 h 8 v 8 h -8 z m -8,0 h 8 v 8 h -8 z m -8,0 h 8 v 8 h -8 z" />
  </g>
  <path
     style="fill:#4990e2;fill-opacity:1;stroke:none;stroke-width:1"
     d="M 74.325287,132.64973 H 19.209238 c 0,-11.22544 7.36669,-20.79491 17.725453,-24.59175 -2.223419,-2.25953 -3.838107,-5.69526 -4.64803,-10.879795 -1.067861,0.216667 -2.723818,-1.005956 -3.2139,-2.868264 -0.500398,-1.89326 -0.825399,-4.952396 0.252779,-5.246445 0.319842,-0.0877 0.65516,-0.0258 0.980161,0.144445 v -5.261922 c 0,-8.284946 -1.950005,-13.154803 11.591704,-14.542506 l -0.118651,-0.03095 c 0,0 10.673447,-1.02659 13.484965,-3.554376 0,0 0.07738,2.135721 1.212305,4.477792 6.247242,2.393658 7.031371,7.928993 6.850816,13.655203 v 5.26708 c 0.33016,-0.170239 0.665478,-0.232144 0.985321,-0.144446 1.078178,0.294049 0.505556,3.466678 0.01031,5.370256 -0.484923,1.841672 -1.882942,2.940485 -2.940486,2.744453 -0.789288,4.936915 -2.522627,8.480975 -4.926602,10.838525 10.436143,3.75041 17.869897,13.33536 17.869897,24.6227 z"
     id="path4770"
     inkscape:connector-curvature="0" />
  <rect
     style="opacity:1;fill:none;fill-opacity:1;fill-rule:evenodd;stroke:#ffffff;stroke-width:8;stroke-linecap:square;stroke-linejoin:miter;stroke-miterlimit:4;stroke-dasharray:none;stroke-dashoffset:2.25;stroke-opacity:1"
     id="rect4758"
     width="192"
     height="125.03177"
     x="3.9999971"
     y="37.484116" />
</svg>
