<?xml version="1.0" encoding="UTF-8" standalone="no"?>
<!-- Generator: Adobe Illustrator 19.0.0, SVG Export Plug-In . SVG Version: 6.00 Build 0)  -->

<svg
   xmlns:dc="http://purl.org/dc/elements/1.1/"
   xmlns:cc="http://creativecommons.org/ns#"
   xmlns:rdf="http://www.w3.org/1999/02/22-rdf-syntax-ns#"
   xmlns:svg="http://www.w3.org/2000/svg"
   xmlns="http://www.w3.org/2000/svg"
   xmlns:sodipodi="http://sodipodi.sourceforge.net/DTD/sodipodi-0.dtd"
   xmlns:inkscape="http://www.inkscape.org/namespaces/inkscape"
   version="1.1"
   id="Layer_1"
   x="0px"
   y="0px"
   viewBox="0 0 484 484"
   style="enable-background:new 0 0 484 484;"
   xml:space="preserve"
   sodipodi:docname="hit-points-full.svg"
   inkscape:version="0.92.1 r15371"><metadata
     id="metadata61"><rdf:RDF><cc:Work
         rdf:about=""><dc:format>image/svg+xml</dc:format><dc:type
           rdf:resource="http://purl.org/dc/dcmitype/StillImage" /><dc:title></dc:title></cc:Work></rdf:RDF></metadata><defs
     id="defs59" /><sodipodi:namedview
     pagecolor="#4a5760"
     bordercolor="#666666"
     borderopacity="1"
     objecttolerance="10"
     gridtolerance="10"
     guidetolerance="10"
     inkscape:pageopacity="0"
     inkscape:pageshadow="2"
     inkscape:window-width="1912"
     inkscape:window-height="2043"
     id="namedview57"
     showgrid="false"
     inkscape:zoom="1.3791504"
     inkscape:cx="45.03409"
     inkscape:cy="295.16645"
     inkscape:window-x="1912"
     inkscape:window-y="0"
     inkscape:window-maximized="0"
     inkscape:current-layer="Layer_1" /><path
     style="opacity:1;fill:#ff373f;fill-opacity:1;fill-rule:evenodd;stroke:none;stroke-width:5;stroke-linecap:butt;stroke-linejoin:miter;stroke-miterlimit:4;stroke-dasharray:none;stroke-dashoffset:2.25;stroke-opacity:1;paint-order:normal"
     d="m 155.01562,62.193359 c 30.42401,0 59.03283,11.849235 80.54883,33.365235 l 9.04297,9.042966 9.04492,-9.042966 c 21.512,-21.516 50.11497,-33.365235 80.54297,-33.365235 30.424,0 59.03292,11.849235 80.54492,33.365235 21.516,21.511996 33.36329,50.114966 33.36329,80.542966 0,30.424 -11.84729,59.03292 -33.36329,80.54492 L 253.0957,418.29492 c -2.352,2.34 -5.42018,3.51172 -8.49218,3.51172 -3.072,0 -6.14038,-1.17358 -8.48438,-3.51758 L 74.472656,256.64258 c -44.416,-44.412 -44.416,-116.67599 0,-161.083986 21.512,-21.516 50.114974,-33.365235 80.542964,-33.365235 z"
     id="path925" /><path
     style="opacity:1;fill:#4990e2;fill-opacity:1;fill-rule:evenodd;stroke:none;stroke-width:5;stroke-linecap:butt;stroke-linejoin:miter;stroke-miterlimit:4;stroke-dasharray:none;stroke-dashoffset:2.25;stroke-opacity:1;paint-order:normal"
     d="m 155.01562,86.193359 c -24.016,0 -46.59226,9.352032 -63.572261,26.332031 -35.056,35.056 -35.056,92.09244 0,127.14844 L 244.60742,392.83789 397.76758,239.67383 c 35.056,-35.056 35.056,-92.09244 0,-127.14844 -16.98,-16.979999 -39.56017,-26.332031 -63.57617,-26.332031 -24.016,0 -46.59218,9.352032 -63.57618,26.332031 l -17.52734,17.5293 c -4.688,4.688 -12.28075,4.688 -16.96875,0 L 218.5918,112.52539 C 201.6078,95.545391 179.02763,86.193359 155.01562,86.193359 Z"
     id="rect910" /><g
     id="g6"
     style="stroke:none;stroke-opacity:1;fill:#ffffff;fill-opacity:1"><g
       id="g4"
       style="stroke:none;stroke-opacity:1;fill:#ffffff;fill-opacity:1"><path
         d="M414.74,95.558c-21.512-21.516-50.12-33.364-80.544-33.364c-30.428,0-59.032,11.848-80.544,33.364l-9.044,9.044    l-9.044-9.044c-21.516-21.516-50.124-33.364-80.548-33.364c-30.428,0-59.032,11.848-80.544,33.364    c-44.416,44.408-44.416,116.672,0,161.084L236.12,418.29c2.344,2.344,5.412,3.516,8.484,3.516c3.072,0,6.14-1.172,8.492-3.512    L414.74,256.646c21.516-21.512,33.364-50.12,33.364-80.544C448.104,145.674,436.256,117.07,414.74,95.558z M397.768,239.674    l-153.16,153.164L91.444,239.674c-35.056-35.056-35.056-92.092,0-127.148c16.98-16.98,39.556-26.332,63.572-26.332    c24.012,0,46.592,9.352,63.576,26.332l17.528,17.528c4.688,4.688,12.28,4.688,16.968,0l17.528-17.528    c16.984-16.98,39.56-26.332,63.576-26.332s46.596,9.352,63.576,26.332C432.824,147.582,432.824,204.618,397.768,239.674z"
         id="path2"
         style="stroke:none;stroke-opacity:1;fill:#ffffff;fill-opacity:1" /></g></g><g
     id="g26" /><g
     id="g28" /><g
     id="g30" /><g
     id="g32" /><g
     id="g34" /><g
     id="g36" /><g
     id="g38" /><g
     id="g40" /><g
     id="g42" /><g
     id="g44" /><g
     id="g46" /><g
     id="g48" /><g
     id="g50" /><g
     id="g52" /><g
     id="g54" /><g
     style="stroke:none;stroke-opacity:1;fill:#ffffff;fill-opacity:1"
     id="g917"><g
       style="stroke:none;stroke-opacity:1;fill:#ffffff;fill-opacity:1"
       id="g915" /></g></svg>