<?xml version="1.0" encoding="UTF-8" standalone="no"?>
<!-- Generator: Adobe Illustrator 19.0.0, SVG Export Plug-In . SVG Version: 6.00 Build 0)  -->

<svg
   xmlns:dc="http://purl.org/dc/elements/1.1/"
   xmlns:cc="http://creativecommons.org/ns#"
   xmlns:rdf="http://www.w3.org/1999/02/22-rdf-syntax-ns#"
   xmlns:svg="http://www.w3.org/2000/svg"
   xmlns="http://www.w3.org/2000/svg"
   xmlns:sodipodi="http://sodipodi.sourceforge.net/DTD/sodipodi-0.dtd"
   xmlns:inkscape="http://www.inkscape.org/namespaces/inkscape"
   version="1.1"
   id="Layer_1"
   x="0px"
   y="0px"
   viewBox="0 0 484 484"
   style="enable-background:new 0 0 484 484;"
   xml:space="preserve"
   sodipodi:docname="hit-points-0.svg"
   inkscape:version="0.92.1 r15371"><metadata
     id="metadata61"><rdf:RDF><cc:Work
         rdf:about=""><dc:format>image/svg+xml</dc:format><dc:type
           rdf:resource="http://purl.org/dc/dcmitype/StillImage" /><dc:title></dc:title></cc:Work></rdf:RDF></metadata><defs
     id="defs59" /><sodipodi:namedview
     pagecolor="#4a5760"
     bordercolor="#666666"
     borderopacity="1"
     objecttolerance="10"
     gridtolerance="10"
     guidetolerance="10"
     inkscape:pageopacity="0"
     inkscape:pageshadow="2"
     inkscape:window-width="1912"
     inkscape:window-height="2051"
     id="namedview57"
     showgrid="false"
     inkscape:zoom="1.3791504"
     inkscape:cx="238.62958"
     inkscape:cy="295.1427"
     inkscape:window-x="1920"
     inkscape:window-y="0"
     inkscape:window-maximized="0"
     inkscape:current-layer="Layer_1" /><g
     id="g6"
     style="stroke:none;stroke-opacity:1;fill:#ffffff;fill-opacity:1"><g
       id="g4"
       style="stroke:none;stroke-opacity:1;fill:#ffffff;fill-opacity:1"><path
         d="M414.74,95.558c-21.512-21.516-50.12-33.364-80.544-33.364c-30.428,0-59.032,11.848-80.544,33.364l-9.044,9.044    l-9.044-9.044c-21.516-21.516-50.124-33.364-80.548-33.364c-30.428,0-59.032,11.848-80.544,33.364    c-44.416,44.408-44.416,116.672,0,161.084L236.12,418.29c2.344,2.344,5.412,3.516,8.484,3.516c3.072,0,6.14-1.172,8.492-3.512    L414.74,256.646c21.516-21.512,33.364-50.12,33.364-80.544C448.104,145.674,436.256,117.07,414.74,95.558z M397.768,239.674    l-153.16,153.164L91.444,239.674c-35.056-35.056-35.056-92.092,0-127.148c16.98-16.98,39.556-26.332,63.572-26.332    c24.012,0,46.592,9.352,63.576,26.332l17.528,17.528c4.688,4.688,12.28,4.688,16.968,0l17.528-17.528    c16.984-16.98,39.56-26.332,63.576-26.332s46.596,9.352,63.576,26.332C432.824,147.582,432.824,204.618,397.768,239.674z"
         id="path2"
         style="stroke:none;stroke-opacity:1;fill:#ffffff;fill-opacity:1" /></g></g><g
     style="fill:#ff373f;fill-opacity:1;stroke:none"
     id="g18"><g
       style="fill:#ff373f;fill-opacity:1;stroke:none"
       id="g16"><path
         inkscape:connector-curvature="0"
         style="fill:#ff373f;fill-opacity:1;stroke:none"
         d="m 475.0598,214.194 -157.9158,0 -17.872,-39.308 c -1.348,-2.972 -4.284,-4.78 -7.624,-4.684 -3.26,0.14 -6.108,2.24 -7.196,5.316 l -36.528,102.936 -44.408,-122.98 c -1.096,-3.036 -3.916,-5.12 -7.148,-5.272 -3.456,-0.16 -6.236,1.66 -7.612,4.584 l -29.84,63.408 H 9.2375254 c -4.42,0 -8,3.584 -8,8 0,4.416 5.264,7.612 9.6839996,7.612 H 165.68 c 3.1,0 4.236,-1.4 5.556,-4.204 l 23.788,-50.548 45.452,125.86 c 1.144,3.168 4.152,5.28 7.524,5.28 h 0.016 c 3.38,-0.008 6.388,-2.14 7.516,-5.324 l 37.376,-105.332 11.804,25.964 c 1.296,2.86 5.832,4.304 8.968,4.304 l 163.0678,0 c 4.416,0 6.312,-3.196 6.312,-7.612 0,-4.416 -3.584,-8 -8,-8 z"
         id="path14"
         sodipodi:nodetypes="scccccccccsssscccsccccssss" /></g></g><g
     id="g26" /><g
     id="g28" /><g
     id="g30" /><g
     id="g32" /><g
     id="g34" /><g
     id="g36" /><g
     id="g38" /><g
     id="g40" /><g
     id="g42" /><g
     id="g44" /><g
     id="g46" /><g
     id="g48" /><g
     id="g50" /><g
     id="g52" /><g
     id="g54" /></svg>