<?xml version="1.0" encoding="UTF-8" standalone="no"?>
<!-- Generator: Adobe Illustrator 19.0.0, SVG Export Plug-In . SVG Version: 6.00 Build 0)  -->

<svg
   xmlns:dc="http://purl.org/dc/elements/1.1/"
   xmlns:cc="http://creativecommons.org/ns#"
   xmlns:rdf="http://www.w3.org/1999/02/22-rdf-syntax-ns#"
   xmlns:svg="http://www.w3.org/2000/svg"
   xmlns="http://www.w3.org/2000/svg"
   xmlns:sodipodi="http://sodipodi.sourceforge.net/DTD/sodipodi-0.dtd"
   xmlns:inkscape="http://www.inkscape.org/namespaces/inkscape"
   version="1.1"
   id="Layer_1"
   x="0px"
   y="0px"
   viewBox="0 0 484 484"
   style="enable-background:new 0 0 484 484;"
   xml:space="preserve"
   sodipodi:docname="hit-points-full-mask.svg"
   inkscape:version="0.92.1 r15371"><metadata
     id="metadata61"><rdf:RDF><cc:Work
         rdf:about=""><dc:format>image/svg+xml</dc:format><dc:type
           rdf:resource="http://purl.org/dc/dcmitype/StillImage" /><dc:title></dc:title></cc:Work></rdf:RDF></metadata><defs
     id="defs59" /><sodipodi:namedview
     pagecolor="#4a5760"
     bordercolor="#666666"
     borderopacity="1"
     objecttolerance="10"
     gridtolerance="10"
     guidetolerance="10"
     inkscape:pageopacity="0"
     inkscape:pageshadow="2"
     inkscape:window-width="1912"
     inkscape:window-height="2051"
     id="namedview57"
     showgrid="false"
     inkscape:zoom="1.4142136"
     inkscape:cx="384.26712"
     inkscape:cy="34.156096"
     inkscape:window-x="1920"
     inkscape:window-y="0"
     inkscape:window-maximized="0"
     inkscape:current-layer="Layer_1" /><path
     style="opacity:1;fill:#4990e2;fill-opacity:1;fill-rule:evenodd;stroke:none;stroke-width:5;stroke-linecap:butt;stroke-linejoin:miter;stroke-miterlimit:4;stroke-dasharray:none;stroke-dashoffset:2.25;stroke-opacity:1;paint-order:normal"
     d="m 155.01562,62.193359 c 30.424,0 59.03283,11.849235 80.54883,33.365235 l 9.04297,9.042966 9.04492,-9.042966 c 21.512,-21.516 50.11497,-33.365235 80.54297,-33.365235 30.424,0 59.03292,11.849235 80.54492,33.365235 21.516,21.511996 33.36329,50.114966 33.36329,80.542966 0,30.424 -11.84729,59.03292 -33.36329,80.54492 L 253.0957,418.29492 c -2.352,2.34 -5.42018,3.51172 -8.49218,3.51172 -3.072,0 -6.14038,-1.17358 -8.48438,-3.51758 L 74.472656,256.64258 c -44.416,-44.412 -44.416,-116.67599 0,-161.083986 21.512,-21.516 50.114974,-33.365235 80.542964,-33.365235 z"
     id="path4551" /><g
     id="g6"
     style="stroke:none;stroke-opacity:1;fill:#ffffff;fill-opacity:1"><g
       id="g4"
       style="stroke:none;stroke-opacity:1;fill:#ffffff;fill-opacity:1"><path
         d="M 414.74,95.558 C 393.228,74.042 364.62,62.194 334.196,62.194 c -30.428,0 -59.032,11.848 -80.544,33.364 l -9.044,9.044 -9.044,-9.044 C 214.048,74.042 185.44,62.194 155.016,62.194 c -30.428,0 -59.032,11.848 -80.544,33.364 -44.416,44.408 -44.416,116.672 0,161.084 L 236.12,418.29 c 2.344,2.344 5.412,3.516 8.484,3.516 3.072,0 6.14,-1.172 8.492,-3.512 L 414.74,256.646 c 21.516,-21.512 33.364,-50.12 33.364,-80.544 0,-30.428 -11.848,-59.032 -33.364,-80.544 z M 401.768,243.674 244.608,396.838 87.444,243.674 c -35.504909,-34.60127 -35.056,-100.092 0,-135.148 16.98,-16.98 43.556,-26.332 67.572,-26.332 24.012,0 46.592,9.352 63.576,26.332 l 17.528,17.528 c 4.688,4.688 12.28,4.688 16.968,0 l 17.528,-17.528 c 16.984,-16.98 39.56,-26.332 63.576,-26.332 24.016,0 50.596,9.352 67.576,26.332 35.056,35.056 35.056,100.092 0,135.148 z"
         id="path2"
         style="fill:#ffffff;fill-opacity:1;stroke:none;stroke-opacity:1"
         inkscape:connector-curvature="0"
         sodipodi:nodetypes="csccssccssccscccssscsscssc" /></g></g><g
     id="g26" /><g
     id="g28" /><g
     id="g30" /><g
     id="g32" /><g
     id="g34" /><g
     id="g36" /><g
     id="g38" /><g
     id="g40" /><g
     id="g42" /><g
     id="g44" /><g
     id="g46" /><g
     id="g48" /><g
     id="g50" /><g
     id="g52" /><g
     id="g54" /><g
     style="stroke:none;stroke-opacity:1;fill:#ffffff;fill-opacity:1"
     id="g4546"><g
       style="stroke:none;stroke-opacity:1;fill:#ffffff;fill-opacity:1"
       id="g4544" /></g><g
     id="g4678"
     transform="matrix(0.611795,0,0,1,60.982666,-442)"
     style="stroke-width:1.27848911"><rect
       y="484"
       x="0"
       height="400"
       width="49.999996"
       id="rect4574"
       style="opacity:1;fill:#499000;fill-opacity:1;fill-rule:evenodd;stroke:none;stroke-width:6.39244509;stroke-linecap:butt;stroke-linejoin:miter;stroke-miterlimit:4;stroke-dasharray:none;stroke-dashoffset:2.25;stroke-opacity:1;paint-order:normal" /><rect
       y="484"
       x="50"
       height="400"
       width="49.999996"
       id="rect4574-7"
       style="opacity:1;fill:#499000;fill-opacity:1;fill-rule:evenodd;stroke:none;stroke-width:6.39244509;stroke-linecap:butt;stroke-linejoin:miter;stroke-miterlimit:4;stroke-dasharray:none;stroke-dashoffset:2.25;stroke-opacity:1;paint-order:normal" /><rect
       y="484"
       x="100"
       height="400"
       width="49.999996"
       id="rect4574-5"
       style="opacity:1;fill:#499000;fill-opacity:1;fill-rule:evenodd;stroke:none;stroke-width:6.39244509;stroke-linecap:butt;stroke-linejoin:miter;stroke-miterlimit:4;stroke-dasharray:none;stroke-dashoffset:2.25;stroke-opacity:1;paint-order:normal" /><rect
       y="484"
       x="150"
       height="400"
       width="49.999996"
       id="rect4574-7-3"
       style="opacity:1;fill:#499000;fill-opacity:1;fill-rule:evenodd;stroke:none;stroke-width:6.39244509;stroke-linecap:butt;stroke-linejoin:miter;stroke-miterlimit:4;stroke-dasharray:none;stroke-dashoffset:2.25;stroke-opacity:1;paint-order:normal" /><rect
       y="484"
       x="200"
       height="400"
       width="49.999996"
       id="rect4574-56"
       style="opacity:1;fill:#499000;fill-opacity:1;fill-rule:evenodd;stroke:none;stroke-width:6.39244509;stroke-linecap:butt;stroke-linejoin:miter;stroke-miterlimit:4;stroke-dasharray:none;stroke-dashoffset:2.25;stroke-opacity:1;paint-order:normal" /><rect
       y="484"
       x="250"
       height="400"
       width="49.999996"
       id="rect4574-7-2"
       style="opacity:1;fill:#499000;fill-opacity:1;fill-rule:evenodd;stroke:none;stroke-width:6.39244509;stroke-linecap:butt;stroke-linejoin:miter;stroke-miterlimit:4;stroke-dasharray:none;stroke-dashoffset:2.25;stroke-opacity:1;paint-order:normal" /><rect
       y="484"
       x="300"
       height="400"
       width="49.999996"
       id="rect4574-5-9"
       style="opacity:1;fill:#499000;fill-opacity:1;fill-rule:evenodd;stroke:none;stroke-width:6.39244509;stroke-linecap:butt;stroke-linejoin:miter;stroke-miterlimit:4;stroke-dasharray:none;stroke-dashoffset:2.25;stroke-opacity:1;paint-order:normal" /><rect
       y="484"
       x="350"
       height="400"
       width="49.999996"
       id="rect4574-7-3-1"
       style="opacity:1;fill:#499000;fill-opacity:1;fill-rule:evenodd;stroke:none;stroke-width:6.39244509;stroke-linecap:butt;stroke-linejoin:miter;stroke-miterlimit:4;stroke-dasharray:none;stroke-dashoffset:2.25;stroke-opacity:1;paint-order:normal" /><rect
       y="484"
       x="400"
       height="400"
       width="49.999996"
       id="rect4574-2"
       style="opacity:1;fill:#499000;fill-opacity:1;fill-rule:evenodd;stroke:none;stroke-width:6.39244509;stroke-linecap:butt;stroke-linejoin:miter;stroke-miterlimit:4;stroke-dasharray:none;stroke-dashoffset:2.25;stroke-opacity:1;paint-order:normal" /><rect
       y="484"
       x="450"
       height="400"
       width="49.999996"
       id="rect4574-7-7"
       style="opacity:1;fill:#499000;fill-opacity:1;fill-rule:evenodd;stroke:none;stroke-width:6.39244509;stroke-linecap:butt;stroke-linejoin:miter;stroke-miterlimit:4;stroke-dasharray:none;stroke-dashoffset:2.25;stroke-opacity:1;paint-order:normal" /><rect
       y="484"
       x="500"
       height="400"
       width="49.999996"
       id="rect4574-5-0"
       style="opacity:1;fill:#499000;fill-opacity:1;fill-rule:evenodd;stroke:none;stroke-width:6.39244509;stroke-linecap:butt;stroke-linejoin:miter;stroke-miterlimit:4;stroke-dasharray:none;stroke-dashoffset:2.25;stroke-opacity:1;paint-order:normal" /><rect
       y="484"
       x="550"
       height="400"
       width="49.999996"
       id="rect4574-7-3-9"
       style="opacity:1;fill:#499000;fill-opacity:1;fill-rule:evenodd;stroke:none;stroke-width:6.39244509;stroke-linecap:butt;stroke-linejoin:miter;stroke-miterlimit:4;stroke-dasharray:none;stroke-dashoffset:2.25;stroke-opacity:1;paint-order:normal" /></g></svg>