<?xml version="1.0" encoding="UTF-8" standalone="no"?>
<!-- Generator: Adobe Illustrator 18.1.1, SVG Export Plug-In . SVG Version: 6.00 Build 0)  -->

<svg
   xmlns:dc="http://purl.org/dc/elements/1.1/"
   xmlns:cc="http://creativecommons.org/ns#"
   xmlns:rdf="http://www.w3.org/1999/02/22-rdf-syntax-ns#"
   xmlns:svg="http://www.w3.org/2000/svg"
   xmlns="http://www.w3.org/2000/svg"
   xmlns:sodipodi="http://sodipodi.sourceforge.net/DTD/sodipodi-0.dtd"
   xmlns:inkscape="http://www.inkscape.org/namespaces/inkscape"
   version="1.1"
   id="Capa_1"
   x="0px"
   y="0px"
   viewBox="0 0 200 200"
   xml:space="preserve"
   sodipodi:docname="sync-yellow.svg"
   inkscape:version="0.92.1 r15371"
   width="200"
   height="200"><metadata
     id="metadata43"><rdf:RDF><cc:Work
         rdf:about=""><dc:format>image/svg+xml</dc:format><dc:type
           rdf:resource="http://purl.org/dc/dcmitype/StillImage" /><dc:title></dc:title></cc:Work></rdf:RDF></metadata><defs
     id="defs41" /><sodipodi:namedview
     pagecolor="#4a5760"
     bordercolor="#666666"
     borderopacity="1"
     objecttolerance="10"
     gridtolerance="10"
     guidetolerance="10"
     inkscape:pageopacity="0"
     inkscape:pageshadow="2"
     inkscape:window-width="1912"
     inkscape:window-height="2043"
     id="namedview39"
     showgrid="false"
     inkscape:zoom="2.6074563"
     inkscape:cx="-37.70715"
     inkscape:cy="25.26682"
     inkscape:window-x="1912"
     inkscape:window-y="0"
     inkscape:window-maximized="0"
     inkscape:current-layer="Capa_1" /><g
     id="g6"
     transform="matrix(10.805085,0,0,10.805085,13.55932,13.55932)"
     style="fill:#b2901d;fill-opacity:1;stroke:none;stroke-width:0.09254902"><path
       style="fill:#b2901d;fill-opacity:1;stroke:none;stroke-width:0.1070665"
       d="M 2.083,9 H 0.062 0 v 5 L 1.481,12.639 C 2.932,14.673 5.311,16 8,16 c 4.08,0 7.446,-3.054 7.938,-7 H 13.917 C 13.441,11.838 10.973,14 8,14 5.894,14 4.04,12.914 2.97,11.271 L 5.441,9 Z"
       id="path2"
       inkscape:connector-curvature="0" /><path
       style="fill:#b2901d;fill-opacity:1;stroke:none;stroke-width:0.1070665"
       d="M 8,0 C 3.92,0 0.554,3.054 0.062,7 H 2.083 C 2.559,4.162 5.027,2 8,2 c 2.169,0 4.07,1.151 5.124,2.876 L 11,7 h 2 0.917 2.021 H 16 V 2 L 14.568,3.432 C 13.123,1.357 10.72,0 8,0 Z"
       id="path4"
       inkscape:connector-curvature="0" /></g></svg>