<?xml version="1.0" encoding="UTF-8" standalone="no"?>
<!-- Generator: Adobe Illustrator 19.0.0, SVG Export Plug-In . SVG Version: 6.00 Build 0)  -->

<svg
   xmlns:dc="http://purl.org/dc/elements/1.1/"
   xmlns:cc="http://creativecommons.org/ns#"
   xmlns:rdf="http://www.w3.org/1999/02/22-rdf-syntax-ns#"
   xmlns:svg="http://www.w3.org/2000/svg"
   xmlns="http://www.w3.org/2000/svg"
   xmlns:sodipodi="http://sodipodi.sourceforge.net/DTD/sodipodi-0.dtd"
   xmlns:inkscape="http://www.inkscape.org/namespaces/inkscape"
   version="1.1"
   id="Layer_1"
   x="0px"
   y="0px"
   viewBox="0 0 295.237 295.237"
   xml:space="preserve"
   sodipodi:docname="virtual-reality-off.svg"
   inkscape:version="0.92.1 r15371"
   style="enable-background:new 0 0 295.237 295.237;"><metadata
     id="metadata49"><rdf:RDF><cc:Work
         rdf:about=""><dc:format>image/svg+xml</dc:format><dc:type
           rdf:resource="http://purl.org/dc/dcmitype/StillImage" /><dc:title></dc:title></cc:Work></rdf:RDF></metadata><defs
     id="defs47" /><sodipodi:namedview
     pagecolor="#4a5760"
     bordercolor="#666666"
     borderopacity="1"
     objecttolerance="10"
     gridtolerance="10"
     guidetolerance="10"
     inkscape:pageopacity="0"
     inkscape:pageshadow="2"
     inkscape:window-width="3840"
     inkscape:window-height="2051"
     id="namedview45"
     showgrid="false"
     inkscape:zoom="0.56523132"
     inkscape:cx="202.14294"
     inkscape:cy="227.75371"
     inkscape:window-x="0"
     inkscape:window-y="0"
     inkscape:window-maximized="1"
     inkscape:current-layer="g12" /><g
     id="g12"><rect
       x="83.333"
       y="119.048"
       width="128.571"
       height="9.5240002"
       id="rect4"
       style="fill:#ffffff" /><path
       d="m 159.52344,0 c -25.8,0 -49.81356,10.128312 -67.851565,28.570312 H 40.476562 v 4.761719 c 0,18.957 10.15725,35.549141 25.28125,44.744141 -3.49,1.652 -6.340106,4.433281 -8.310546,7.638672 -1.727281,2.809835 -2.687487,6.225155 -2.685547,9.523437 0.0059,10.007679 -0.02955,19.404029 0,28.572269 0.01065,3.30416 1.463642,6.47993 2.75,9.52343 1.989473,4.70705 4.361609,9.41446 7.599609,13.31446 3.681,28.557 20.680066,53.92778 45.789062,68.05078 l 1.00586,0.58594 v 32.33398 H 78.570312 c -1.608997,0 -3.193765,0.10525 -4.759765,0.28125 l -9.525391,2.2168 c -16.619,5.905 -28.570312,21.74342 -28.570312,40.35742 v 4.76172 h 9.523437 v -4.76172 c 0,-13.262 7.803875,-24.70931 19.046875,-30.07031 l 9.525391,-2.88086 c 1.562,-0.224 3.142719,-0.38086 4.761719,-0.38086 H 115.0332 l 44.49024,34.60351 44.49023,-34.60351 h 36.46289 c 18.376,0 33.33203,14.95103 33.33203,33.33203 v 4.76172 h 9.52344 v -4.76172 c 0,-23.627 -19.22147,-42.85547 -42.85547,-42.85547 h -33.33398 v -32.33398 l 1.00586,-0.56641 c 24.971,-14.048 41.94828,-39.24291 45.73828,-67.62891 6.519,-7.69 10.39844,-17.74329 10.39844,-28.52929 V 98.251953 c 0,-9.505 -4.45693,-17.052547 -11.29493,-20.310547 C 244.68923,32.624406 205.88544,0 159.52344,0 Z m 0,9.5234375 c 39.824,0 74.65812,28.2188435 83.45312,66.5898435 -11.619,-0.805 -21.88153,-8.02475 -26.51953,-18.84375 l -9.31445,-21.748047 -9.31446,21.744141 c -4.929,11.495 -16.18835,18.923828 -28.69335,18.923828 H 92.857422 c -22.024,0.001 -40.213844,-16.69375 -42.589844,-38.09375 h 45.5 l 1.414063,-1.505859 C 113.54864,19.137844 135.69044,9.5234375 159.52344,9.5234375 Z m 47.61914,50.1914065 0.5625,1.308594 c 2.585,6.024 6.54623,11.138015 11.36523,15.166015 h -23.85547 c 4.824,-4.029 8.77924,-9.141922 11.36524,-15.169922 z m -133.248049,26 h 18.962891 76.275388 76.02344 c 5.833,0 9.60547,4.918109 9.60547,12.537109 V 118.5625 c 0,15.21 -9.74808,28.5667 -23.70508,32.4707 -11.429,3.19 -22.95105,0.64768 -31.62305,-6.98632 l -1.34375,-1.18946 h -77.13281 l -1.34765,1.18946 c -7.72402,6.805 -18.04358,9.62981 -28.267583,7.75781 -15.676,-2.862 -27.056641,-17.1865 -27.056641,-34.0625 V 95.324219 c 0,-5.3 4.309375,-9.609375 9.609375,-9.609375 z m 50.603519,66.667966 h 70.05273 c 7.733,6.271 17.05692,9.53625 26.79492,9.53125 4.052,0 8.17625,-0.56589 12.28125,-1.71289 3.048,-0.852 5.92391,-2.07531 8.62891,-3.57031 -5.745,20.932 -19.6363,39.02206 -38.7793,49.78906 l -19.54883,11 c -14.871,8.362 -33.93854,8.362 -48.81054,0 l -19.54688,-11 c -19.213989,-10.81 -33.119216,-28.96365 -38.824216,-49.97265 3.938,2.238 8.257625,3.88246 12.890625,4.73046 12.524001,2.286 25.109331,-0.91392 34.861331,-8.79492 z m -3.06836,68.25977 9.02343,5.07617 c 8.857,4.981 18.90932,7.61328 29.07032,7.61328 10.162,0 20.21526,-2.63228 29.07226,-7.61328 l 9.02344,-5.07617 v 29.41015 l -38.0957,29.62891 -38.09375,-29.62891 z"
       id="path2"
       inkscape:connector-curvature="0"
       style="stroke:none;fill:#fffffe;fill-opacity:1" /><rect
       x="221.429"
       y="119.048"
       width="14.286"
       height="9.5240002"
       id="rect6"
       style="fill:#ffffff" /><path
       style="fill:#ffffff;fill-opacity:0.91085273;stroke:none;stroke-opacity:1;opacity:0.5"
       d="M 42.158269,87.714844 H 38 C 30.124,87.714844 23.714844,92.124 23.714844,100 v 5.18945 c -13.49,2.281 -23.810547,14.01358 -23.810547,28.14258 v 38.0957 c 0,15.757 12.813312,28.57032 28.570312,28.57032 h 16.761719 c 10.505,0 19.048828,8.54382 19.048828,19.04883 v 76.18945 h 9.525391 v -76.1875 c 0,-15.757 -12.815266,-28.57227 -28.572266,-28.57227 H 28.476562 c -10.505,0 -19.046874,-8.54187 -19.046874,-19.04687 v -38.09571 c 0,-8.848 6.089156,-16.24309 14.285156,-18.37109 v 4.17188 c 0,7.876 6.411109,12.19921 14.287109,12.19921 h 4.156316"
       id="path856"
       inkscape:connector-curvature="0"
       sodipodi:nodetypes="csscsssssccssssscssc" /></g><g
     id="g14" /><g
     id="g16" /><g
     id="g18" /><g
     id="g20" /><g
     id="g22" /><g
     id="g24" /><g
     id="g26" /><g
     id="g28" /><g
     id="g30" /><g
     id="g32" /><g
     id="g34" /><g
     id="g36" /><g
     id="g38" /><g
     id="g40" /><g
     id="g42" /></svg>