<?xml version="1.0" encoding="UTF-8" standalone="no"?>
<svg
   xmlns:dc="http://purl.org/dc/elements/1.1/"
   xmlns:cc="http://creativecommons.org/ns#"
   xmlns:rdf="http://www.w3.org/1999/02/22-rdf-syntax-ns#"
   xmlns:svg="http://www.w3.org/2000/svg"
   xmlns="http://www.w3.org/2000/svg"
   xmlns:sodipodi="http://sodipodi.sourceforge.net/DTD/sodipodi-0.dtd"
   xmlns:inkscape="http://www.inkscape.org/namespaces/inkscape"
   version="1.1"
   width="200"
   height="200"
   id="svg448"
   sodipodi:docname="scan-qr-code.svg"
   inkscape:version="0.92.1 r15371">
  <metadata
     id="metadata454">
    <rdf:RDF>
      <cc:Work
         rdf:about="">
        <dc:format>image/svg+xml</dc:format>
        <dc:type
           rdf:resource="http://purl.org/dc/dcmitype/StillImage" />
        <dc:title></dc:title>
      </cc:Work>
    </rdf:RDF>
  </metadata>
  <defs
     id="defs452" />
  <sodipodi:namedview
     pagecolor="#4a5760"
     bordercolor="#666666"
     borderopacity="1"
     objecttolerance="10"
     gridtolerance="10"
     guidetolerance="10"
     inkscape:pageopacity="0"
     inkscape:pageshadow="2"
     inkscape:window-width="3840"
     inkscape:window-height="2051"
     id="namedview450"
     showgrid="false"
     inkscape:zoom="4.72"
     inkscape:cx="14.408826"
     inkscape:cy="133.55599"
     inkscape:window-x="0"
     inkscape:window-y="0"
     inkscape:window-maximized="1"
     inkscape:current-layer="svg448" />
  <g
     id="g5173"
     transform="matrix(0.91810927,0,0,0.91810927,8.1890729,8.1890729)"
     style="fill:#ffffff;fill-opacity:1;stroke:none;stroke-width:1.08919489">
    <path
       id="rect446"
       style="fill:#ffffff;fill-opacity:1;stroke:none;stroke-width:1.30857074"
       d="m 168,176 h 8 v 8 h -8 z m -16,0 h 8 v 8 h -8 z m -8,0 h 8 v 8 h -8 z m -32,0 h 8 v 8 h -8 z m -8,0 h 8 v 8 h -8 z m -24,0 h 8 v 8 h -8 z m -16,0 h 8 v 8 h -8 z m -8,0 h 8 v 8 h -8 z m -8,0 h 8 v 8 h -8 z m -8,0 h 8 v 8 h -8 z m -8,0 h 8 v 8 h -8 z m -8,0 h 8 v 8 h -8 z m -8,0 h 8 v 8 h -8 z m 136,-8 h 8 v 8 h -8 z m -8,0 h 8 v 8 h -8 z m -8,0 h 8 v 8 h -8 z m -8,0 h 8 v 8 h -8 z m -8,0 h 8 v 8 h -8 z m -32,0 h 8 v 8 h -8 z m -8,0 h 8 v 8 h -8 z m -16,0 h 8 v 8 h -8 z m -48,0 h 8 v 8 h -8 z m 160,-8 h 8 v 8 h -8 z m -24,0 h 8 v 8 h -8 z m -8,0 h 8 v 8 h -8 z m -8,0 h 8 v 8 h -8 z m -24,0 h 8 v 8 h -8 z m -24,0 h 8 v 8 h -8 z m -24,0 h 8 v 8 h -8 z m -16,0 h 8 v 8 h -8 z m -8,0 h 8 v 8 h -8 z m -8,0 h 8 v 8 h -8 z m -16,0 h 8 v 8 h -8 z m 160,-8 h 8 v 8 h -8 z m -8,0 h 8 v 8 h -8 z m -32,0 h 8 v 8 h -8 z m -32,0 h 8 v 8 h -8 z m -24,0 h 8 v 8 h -8 z m -16,0 h 8 v 8 h -8 z m -16,0 h 8 v 8 h -8 z m -8,0 h 8 v 8 h -8 z m -8,0 h 8 v 8 h -8 z m -16,0 h 8 v 8 h -8 z m 152,-8 h 8 v 8 h -8 z m -16,0 h 8 v 8 h -8 z m -8,0 h 8 v 8 h -8 z m -8,0 h 8 v 8 h -8 z m -8,0 h 8 v 8 h -8 z m -8,0 h 8 v 8 h -8 z m -16,0 h 8 v 8 h -8 z m -16,0 h 8 v 8 h -8 z m -24,0 h 8 v 8 h -8 z m -16,0 h 8 v 8 h -8 z m -8,0 h 8 v 8 h -8 z m -8,0 h 8 v 8 h -8 z m -16,0 h 8 v 8 h -8 z m 120,-8 h 8 v 8 h -8 z m -16,0 h 8 v 8 h -8 z m -8,0 h 8 v 8 h -8 z m -8,0 h 8 v 8 h -8 z m -8,0 h 8 v 8 h -8 z m -32,0 h 8 v 8 h -8 z m -48,0 h 8 v 8 h -8 z m 152,-8 h 8 v 8 h -8 z m -8,0 h 8 v 8 h -8 z m -16,0 h 8 v 8 h -8 z m -8,0 h 8 v 8 h -8 z m -56,0 h 8 v 8 h -8 z m -16,0 h 8 v 8 h -8 z m -8,0 h 8 v 8 h -8 z m -8,0 h 8 v 8 h -8 z m -8,0 h 8 v 8 h -8 z m -8,0 h 8 v 8 h -8 z m -8,0 h 8 v 8 h -8 z m -8,0 h 8 v 8 h -8 z m 128,-8 h 8 v 8 h -8 z m -8,0 h 8 v 8 h -8 z m -32,0 h 8 v 8 h -8 z m -16,0 h 8 v 8 h -8 z m -8,0 h 8 v 8 h -8 z m 96,-8 h 8 v 8 h -8 z m -8,0 h 8 v 8 h -8 z m -16,0 h 8 v 8 h -8 z m -8,0 h 8 v 8 h -8 z m -16,0 h 8 v 8 h -8 z m -8,0 h 8 v 8 h -8 z m -8,0 h 8 v 8 h -8 z m -16,0 h 8 v 8 h -8 z m -32,0 h 8 v 8 h -8 z m -40,0 h 8 v 8 h -8 z m -8,0 h 8 v 8 h -8 z m 160,-8 h 8 v 8 h -8 z m -8,0 h 8 v 8 h -8 z m -16,0 h 8 v 8 h -8 z m -24,0 h 8 v 8 h -8 z m -24,0 h 8 v 8 h -8 z m -8,0 h 8 v 8 h -8 z m -8,0 h 8 v 8 h -8 z m -16,0 h 8 v 8 h -8 z m -24,0 h 8 v 8 h -8 z m -16,0 h 8 v 8 h -8 z m -16,0 h 8 v 8 h -8 z m 160,-8 h 8 v 8 h -8 z m -16,0 h 8 v 8 h -8 z m -8,0 h 8 v 8 h -8 z m -16,0 h 8 v 8 h -8 z m -16,0 h 8 v 8 h -8 z m -8,0 h 8 v 8 h -8 z m -48,0 h 8 v 8 h -8 z m -8,0 h 8 v 8 h -8 z m -8,0 h 8 v 8 h -8 z m -8,0 h 8 v 8 h -8 z m -8,0 h 8 v 8 h -8 z m 144,-8 h 8 v 8 h -8 z m -8,0 h 8 v 8 h -8 z m -48,0 h 8 v 8 h -8 z m -32,0 h 8 v 8 h -8 z m -16,0 h 8 v 8 h -8 z m -24,0 h 8 v 8 h -8 z m -8,0 h 8 v 8 h -8 z m 128,-8 h 8 v 8 h -8 z m -8,0 h 8 v 8 h -8 z m -16,0 h 8 v 8 h -8 z m -8,0 h 8 v 8 h -8 z m -8,0 h 8 v 8 h -8 z m -32,0 h 8 v 8 h -8 z m -8,0 h 8 v 8 h -8 z m -16,0 h 8 v 8 h -8 z m -8,0 h 8 v 8 h -8 z m -24,0 h 8 v 8 h -8 z m -16,0 h 8 v 8 h -8 z m -8,0 h 8 v 8 h -8 z m 96,-8 h 8 v 8 h -8 z m -8,0 h 8 v 8 h -8 z m -8,0 h 8 v 8 h -8 z m -8,0 h 8 v 8 h -8 z m -8,0 h 8 v 8 h -8 z m 96,-8 h 8 v 8 h -8 z m -8,0 h 8 v 8 h -8 z m -8,0 h 8 v 8 h -8 z m -8,0 h 8 v 8 h -8 z m -8,0 h 8 v 8 h -8 z m -8,0 h 8 v 8 h -8 z m -8,0 h 8 v 8 h -8 z m -16,0 h 8 v 8 h -8 z m -16,0 h 8 v 8 h -8 z m -16,0 h 8 v 8 h -8 z m -16,0 h 8 v 8 h -8 z m -8,0 h 8 v 8 h -8 z m -8,0 h 8 v 8 h -8 z m -8,0 h 8 v 8 h -8 z m -8,0 h 8 v 8 h -8 z m -8,0 h 8 v 8 h -8 z m -8,0 h 8 v 8 h -8 z m 160,-8 h 8 v 8 h -8 z m -48,0 h 8 v 8 h -8 z m -16,0 h 8 v 8 h -8 z m -8,0 h 8 v 8 h -8 z m -24,0 h 8 v 8 h -8 z m -16,0 h 8 v 8 h -8 z m -48,0 h 8 v 8 h -8 z m 160,-8 h 8 v 8 h -8 z m -16,0 h 8 v 8 h -8 z m -8,0 h 8 v 8 h -8 z m -8,0 h 8 v 8 h -8 z m -16,0 h 8 v 8 h -8 z m -16,0 h 8 v 8 h -8 z m -32,0 h 8 v 8 h -8 z m -16,0 h 8 v 8 h -8 z m -16,0 h 8 v 8 h -8 z m -8,0 h 8 v 8 h -8 z m -8,0 h 8 v 8 h -8 z m -16,0 h 8 v 8 h -8 z m 160,-8 h 8 v 8 h -8 z m -16,0 h 8 v 8 h -8 z m -8,0 h 8 v 8 h -8 z m -8,0 h 8 v 8 h -8 z m -16,0 h 8 v 8 h -8 z m -24,0 h 8 v 8 h -8 z m -16,0 h 8 v 8 h -8 z m -24,0 h 8 v 8 h -8 z m -16,0 h 8 v 8 h -8 z m -8,0 h 8 v 8 h -8 z m -8,0 h 8 v 8 h -8 z m -16,0 h 8 v 8 h -8 z m 160,-8 h 8 v 8 h -8 z m -16,0 h 8 v 8 h -8 z m -8,0 h 8 v 8 h -8 z m -8,0 h 8 v 8 h -8 z m -16,0 h 8 v 8 h -8 z m -16,0 h 8 v 8 h -8 z m -24,0 h 8 v 8 h -8 z m -8,0 h 8 v 8 h -8 z m -16,0 h 8 v 8 h -8 z m -16,0 h 8 v 8 h -8 z m -8,0 h 8 v 8 h -8 z m -8,0 h 8 v 8 h -8 z m -16,0 h 8 v 8 h -8 z m 160,-8 h 8 v 8 h -8 z m -48,0 h 8 v 8 h -8 z m -24,0 h 8 v 8 h -8 z m -16,0 h 8 v 8 h -8 z m -8,0 h 8 v 8 h -8 z m -16,0 h 8 v 8 h -8 z m -48,0 h 8 v 8 h -8 z m 160,-8 h 8 v 8 h -8 z m -8,0 h 8 v 8 h -8 z m -8,0 h 8 v 8 h -8 z m -8,0 h 8 v 8 h -8 z m -8,0 h 8 v 8 h -8 z m -8,0 h 8 v 8 h -8 z m -8,0 h 8 v 8 h -8 z m -16,0 h 8 v 8 h -8 z m -8,0 h 8 v 8 h -8 z m -16,0 h 8 v 8 h -8 z m -24,0 h 8 v 8 h -8 z m -8,0 h 8 v 8 h -8 z m -8,0 h 8 v 8 h -8 z m -8,0 h 8 v 8 h -8 z m -8,0 h 8 v 8 h -8 z m -8,0 h 8 v 8 h -8 z m -8,0 h 8 v 8 h -8 z" />
  </g>
  <g
     id="g5236"
     style="fill:#4990e2;fill-opacity:1">
    <path
       inkscape:connector-curvature="0"
       id="rect5183"
       d="M 0,0 V 50.846399 H 7.667694 V 7.667694 H 50.846401 V 0 Z"
       style="opacity:1;fill:#4990e2;fill-opacity:1;fill-rule:evenodd;stroke:none;stroke-width:2.5;stroke-linecap:square;stroke-linejoin:miter;stroke-miterlimit:4;stroke-dasharray:none;stroke-dashoffset:2.25;stroke-opacity:0.4545455" />
    <path
       inkscape:connector-curvature="0"
       id="rect5183-6"
       d="m 200,0 h -50.8464 v 7.66769 h 43.17871 V 50.8464 H 200 Z"
       style="opacity:1;fill:#4990e2;fill-opacity:1;fill-rule:evenodd;stroke:none;stroke-width:2.5;stroke-linecap:square;stroke-linejoin:miter;stroke-miterlimit:4;stroke-dasharray:none;stroke-dashoffset:2.25;stroke-opacity:0.4545455" />
    <path
       inkscape:connector-curvature="0"
       id="rect5183-7"
       d="m 200,200 v -50.8464 h -7.6677 v 43.1787 H 149.15359 V 200 Z"
       style="opacity:1;fill:#4990e2;fill-opacity:1;fill-rule:evenodd;stroke:none;stroke-width:2.5;stroke-linecap:square;stroke-linejoin:miter;stroke-miterlimit:4;stroke-dasharray:none;stroke-dashoffset:2.25;stroke-opacity:0.4545455" />
    <path
       inkscape:connector-curvature="0"
       id="rect5183-5"
       d="m 0,200 h 50.8464 v -7.66769 H 7.66769 V 149.1536 H 0 Z"
       style="opacity:1;fill:#4990e2;fill-opacity:1;fill-rule:evenodd;stroke:none;stroke-width:2.5;stroke-linecap:square;stroke-linejoin:miter;stroke-miterlimit:4;stroke-dasharray:none;stroke-dashoffset:2.25;stroke-opacity:0.4545455" />
  </g>
</svg>
