<?xml version="1.0" encoding="UTF-8" standalone="no"?>
<!-- Generator: Adobe Illustrator 18.1.1, SVG Export Plug-In . SVG Version: 6.00 Build 0)  -->

<svg
   xmlns:dc="http://purl.org/dc/elements/1.1/"
   xmlns:cc="http://creativecommons.org/ns#"
   xmlns:rdf="http://www.w3.org/1999/02/22-rdf-syntax-ns#"
   xmlns:svg="http://www.w3.org/2000/svg"
   xmlns="http://www.w3.org/2000/svg"
   xmlns:sodipodi="http://sodipodi.sourceforge.net/DTD/sodipodi-0.dtd"
   xmlns:inkscape="http://www.inkscape.org/namespaces/inkscape"
   version="1.1"
   id="Capa_1"
   x="0px"
   y="0px"
   viewBox="0 0 53.355 53.355"
   style="enable-background:new 0 0 53.355 53.355;"
   xml:space="preserve"
   width="512px"
   height="512px"
   sodipodi:docname="physiology.svg"
   inkscape:version="0.92.1 r15371"><metadata
     id="metadata45"><rdf:RDF><cc:Work
         rdf:about=""><dc:format>image/svg+xml</dc:format><dc:type
           rdf:resource="http://purl.org/dc/dcmitype/StillImage" /><dc:title></dc:title></cc:Work></rdf:RDF></metadata><defs
     id="defs43" /><sodipodi:namedview
     pagecolor="#4a5760"
     bordercolor="#666666"
     borderopacity="1"
     objecttolerance="10"
     gridtolerance="10"
     guidetolerance="10"
     inkscape:pageopacity="0"
     inkscape:pageshadow="2"
     inkscape:window-width="1912"
     inkscape:window-height="993"
     id="namedview41"
     showgrid="false"
     inkscape:zoom="0.4609375"
     inkscape:cx="-323.25424"
     inkscape:cy="256"
     inkscape:window-x="0"
     inkscape:window-y="0"
     inkscape:window-maximized="0"
     inkscape:current-layer="Capa_1" /><g
     id="g8"><g
       id="g6"><circle
         cx="26.677"
         cy="4.383"
         r="4.383"
         fill="#FFFFFF"
         id="circle2" /><path
         d="M40.201,28.096c-1.236-13.887-7.854-16.657-7.854-16.657s-6.396-3.845-13.129,1.052    c-4.365,3.973-5.373,10.038-6.063,15.896c-0.349,2.977,4.307,2.941,4.653,0c0.412-3.496,1-7.008,2.735-9.999l-0.008,3.375    l-0.032,16.219v12.867c0,1.383,1.014,2.506,2.438,2.506c1.423,0,2.578-1.123,2.578-2.506V32.457h2.278c0,4.309,0,14.144,0,18.451    c0,3,4.652,3,4.652,0c0-4.309,0-8.619,0-12.927l0.197-16.251c0.002-1.551,0.004-2.937,0.004-3.901    c1.859,3.046,2.473,6.664,2.896,10.265C35.895,31.037,40.55,31.073,40.201,28.096z"
         fill="#FFFFFF"
         id="path4" /></g></g>
</svg>
